<svg width="1375" height="960" viewBox="0 0 1375 960" fill="none" xmlns="http://www.w3.org/2000/svg">
<path d="M0 15.9513H1375" stroke="#2F3031" stroke-opacity="0.38" stroke-width="1.25"/>
<path d="M0 58.3817H1375" stroke="#2F3031" stroke-opacity="0.38" stroke-width="1.25"/>
<path d="M0 104.959H1375" stroke="#2F3031" stroke-opacity="0.38" stroke-width="1.25"/>
<path d="M0 151.537H1375" stroke="#2F3031" stroke-opacity="0.38" stroke-width="1.25"/>
<path d="M0 198.115H1375" stroke="#2F3031" stroke-opacity="0.38" stroke-width="1.25"/>
<path d="M0 244.693H1375" stroke="#2F3031" stroke-opacity="0.38" stroke-width="1.25"/>
<path d="M0 291.27H1375" stroke="#2F3031" stroke-opacity="0.38" stroke-width="1.25"/>
<path d="M0 337.848H1375" stroke="#2F3031" stroke-opacity="0.38" stroke-width="1.25"/>
<path d="M0 384.426H1375" stroke="#2F3031" stroke-opacity="0.38" stroke-width="1.25"/>
<path d="M0 431.003H1375" stroke="#2F3031" stroke-opacity="0.38" stroke-width="1.25"/>
<path d="M0 477.581H1375" stroke="#2F3031" stroke-opacity="0.38" stroke-width="1.25"/>
<path d="M0 524.159H1375" stroke="#2F3031" stroke-opacity="0.38" stroke-width="1.25"/>
<path d="M0 570.737H1375" stroke="#2F3031" stroke-opacity="0.38" stroke-width="1.25"/>
<path d="M0 617.314H1375" stroke="#2F3031" stroke-opacity="0.38" stroke-width="1.25"/>
<path d="M0 663.892H1375" stroke="#2F3031" stroke-opacity="0.38" stroke-width="1.25"/>
<path d="M0 710.47H1375" stroke="#2F3031" stroke-opacity="0.38" stroke-width="1.25"/>
<path d="M0 761.514H1375" stroke="#2F3031" stroke-opacity="0.38" stroke-width="1.25"/>
<path d="M0 761.514H1375" stroke="#2F3031" stroke-opacity="0.38" stroke-width="1.25"/>
<path d="M0 812.558H1375" stroke="#2F3031" stroke-opacity="0.38" stroke-width="1.25"/>
<path d="M0 863.602H1375" stroke="#2F3031" stroke-opacity="0.38" stroke-width="1.25"/>
<path d="M0 914.646H1375" stroke="#2F3031" stroke-opacity="0.38" stroke-width="1.25"/>
<path d="M0 959.31H1375" stroke="#2F3031" stroke-opacity="0.38" stroke-width="1.25"/>
<path d="M7.02073 957.077L7.01855 0" stroke="#2F3031" stroke-opacity="0.38" stroke-width="1.25"/>
<path d="M53.5984 957.077L53.5962 0" stroke="#2F3031" stroke-opacity="0.38" stroke-width="1.25"/>
<path d="M100.176 957.077L100.174 0" stroke="#2F3031" stroke-opacity="0.38" stroke-width="1.25"/>
<path d="M146.754 957.077L146.752 0" stroke="#2F3031" stroke-opacity="0.38" stroke-width="1.25"/>
<path d="M193.332 957.077L193.33 0" stroke="#2F3031" stroke-opacity="0.38" stroke-width="1.25"/>
<path d="M239.909 957.077L239.907 0" stroke="#2F3031" stroke-opacity="0.38" stroke-width="1.25"/>
<path d="M286.487 957.077L286.485 0" stroke="#2F3031" stroke-opacity="0.38" stroke-width="1.25"/>
<path d="M333.065 957.077L333.062 0" stroke="#2F3031" stroke-opacity="0.38" stroke-width="1.25"/>
<path d="M379.643 957.077L379.641 0" stroke="#2F3031" stroke-opacity="0.38" stroke-width="1.25"/>
<path d="M426.22 957.077L426.218 0" stroke="#2F3031" stroke-opacity="0.38" stroke-width="1.25"/>
<path d="M472.798 957.077L472.796 0" stroke="#2F3031" stroke-opacity="0.38" stroke-width="1.25"/>
<path d="M519.376 957.077L519.374 0" stroke="#2F3031" stroke-opacity="0.38" stroke-width="1.25"/>
<path d="M565.953 957.077L565.951 0" stroke="#2F3031" stroke-opacity="0.38" stroke-width="1.25"/>
<path d="M612.531 957.077L612.529 0" stroke="#2F3031" stroke-opacity="0.38" stroke-width="1.25"/>
<path d="M659.109 957.077L659.107 0" stroke="#2F3031" stroke-opacity="0.38" stroke-width="1.25"/>
<path d="M705.687 957.077L705.685 0" stroke="#2F3031" stroke-opacity="0.38" stroke-width="1.25"/>
<path d="M752.264 957.077L752.262 0" stroke="#2F3031" stroke-opacity="0.38" stroke-width="1.25"/>
<path d="M798.842 957.077L798.84 0" stroke="#2F3031" stroke-opacity="0.38" stroke-width="1.25"/>
<path d="M845.42 957.077L845.418 0" stroke="#2F3031" stroke-opacity="0.38" stroke-width="1.25"/>
<path d="M891.998 957.077L891.995 0" stroke="#2F3031" stroke-opacity="0.38" stroke-width="1.25"/>
<path d="M938.575 957.077L938.573 0" stroke="#2F3031" stroke-opacity="0.38" stroke-width="1.25"/>
<path d="M985.153 957.077L985.151 0" stroke="#2F3031" stroke-opacity="0.38" stroke-width="1.25"/>
<path d="M1031.73 957.077L1031.73 0" stroke="#2F3031" stroke-opacity="0.38" stroke-width="1.25"/>
<path d="M1078.31 957.077L1078.31 0" stroke="#2F3031" stroke-opacity="0.38" stroke-width="1.25"/>
<path d="M1124.89 957.077L1124.88 0" stroke="#2F3031" stroke-opacity="0.38" stroke-width="1.25"/>
<path d="M1171.46 957.077L1171.46 0" stroke="#2F3031" stroke-opacity="0.38" stroke-width="1.25"/>
<path d="M1218.04 957.077L1218.04 0" stroke="#2F3031" stroke-opacity="0.38" stroke-width="1.25"/>
<path d="M1264.62 957.077L1264.62 0" stroke="#2F3031" stroke-opacity="0.38" stroke-width="1.25"/>
<path d="M1311.2 957.077L1311.19 0" stroke="#2F3031" stroke-opacity="0.38" stroke-width="1.25"/>
<path d="M1357.77 957.077L1357.77 0" stroke="#2F3031" stroke-opacity="0.38" stroke-width="1.25"/>
</svg>
