<svg width="2155" height="1505" viewBox="0 0 2155 1505" fill="none" xmlns="http://www.w3.org/2000/svg">
<path d="M0 25H2155" stroke="#2F3031" stroke-width="1.25"/>
<path d="M0 91.5H2155" stroke="#2F3031" stroke-width="1.25"/>
<path d="M0 164.5H2155" stroke="#2F3031" stroke-width="1.25"/>
<path d="M0 237.5H2155" stroke="#2F3031" stroke-width="1.25"/>
<path d="M0 310.5H2155" stroke="#2F3031" stroke-width="1.25"/>
<path d="M0 383.5H2155" stroke="#2F3031" stroke-width="1.25"/>
<path d="M0 456.5H2155" stroke="#2F3031" stroke-width="1.25"/>
<path d="M0 529.5H2155" stroke="#2F3031" stroke-width="1.25"/>
<path d="M0 602.5H2155" stroke="#2F3031" stroke-width="1.25"/>
<path d="M0 675.5H2155" stroke="#2F3031" stroke-width="1.25"/>
<path d="M0 748.5H2155" stroke="#2F3031" stroke-width="1.25"/>
<path d="M0 821.5H2155" stroke="#2F3031" stroke-width="1.25"/>
<path d="M0 894.5H2155" stroke="#2F3031" stroke-width="1.25"/>
<path d="M0 967.5H2155" stroke="#2F3031" stroke-width="1.25"/>
<path d="M0 1040.5H2155" stroke="#2F3031" stroke-width="1.25"/>
<path d="M0 1113.5H2155" stroke="#2F3031" stroke-width="1.25"/>
<path d="M0 1193.5H2155" stroke="#2F3031" stroke-width="1.25"/>
<path d="M0 1193.5H2155" stroke="#2F3031" stroke-width="1.25"/>
<path d="M0 1273.5H2155" stroke="#2F3031" stroke-width="1.25"/>
<path d="M0 1353.5H2155" stroke="#2F3031" stroke-width="1.25"/>
<path d="M0 1433.5H2155" stroke="#2F3031" stroke-width="1.25"/>
<path d="M0 1503.5H2155" stroke="#2F3031" stroke-width="1.25"/>
<path d="M11.0034 1500L11 0" stroke="#2F3031" stroke-width="1.25"/>
<path d="M84.0034 1500L84 0" stroke="#2F3031" stroke-width="1.25"/>
<path d="M157.003 1500L157 0" stroke="#2F3031" stroke-width="1.25"/>
<path d="M230.003 1500L230 0" stroke="#2F3031" stroke-width="1.25"/>
<path d="M303.003 1500L303 0" stroke="#2F3031" stroke-width="1.25"/>
<path d="M376.003 1500L376 0" stroke="#2F3031" stroke-width="1.25"/>
<path d="M449.003 1500L449 0" stroke="#2F3031" stroke-width="1.25"/>
<path d="M522.003 1500L522 0" stroke="#2F3031" stroke-width="1.25"/>
<path d="M595.003 1500L595 0" stroke="#2F3031" stroke-width="1.25"/>
<path d="M668.003 1500L668 0" stroke="#2F3031" stroke-width="1.25"/>
<path d="M741.003 1500L741 0" stroke="#2F3031" stroke-width="1.25"/>
<path d="M814.003 1500L814 0" stroke="#2F3031" stroke-width="1.25"/>
<path d="M887.003 1500L887 0" stroke="#2F3031" stroke-width="1.25"/>
<path d="M960.003 1500L960 0" stroke="#2F3031" stroke-width="1.25"/>
<path d="M1033 1500L1033 0" stroke="#2F3031" stroke-width="1.25"/>
<path d="M1106 1500L1106 0" stroke="#2F3031" stroke-width="1.25"/>
<path d="M1179 1500L1179 0" stroke="#2F3031" stroke-width="1.25"/>
<path d="M1252 1500L1252 0" stroke="#2F3031" stroke-width="1.25"/>
<path d="M1325 1500L1325 0" stroke="#2F3031" stroke-width="1.25"/>
<path d="M1398 1500L1398 0" stroke="#2F3031" stroke-width="1.25"/>
<path d="M1471 1500L1471 0" stroke="#2F3031" stroke-width="1.25"/>
<path d="M1544 1500L1544 0" stroke="#2F3031" stroke-width="1.25"/>
<path d="M1617 1500L1617 0" stroke="#2F3031" stroke-width="1.25"/>
<path d="M1690 1500L1690 0" stroke="#2F3031" stroke-width="1.25"/>
<path d="M1763 1500L1763 0" stroke="#2F3031" stroke-width="1.25"/>
<path d="M1836 1500L1836 0" stroke="#2F3031" stroke-width="1.25"/>
<path d="M1909 1500L1909 0" stroke="#2F3031" stroke-width="1.25"/>
<path d="M1982 1500L1982 0" stroke="#2F3031" stroke-width="1.25"/>
<path d="M2055 1500L2055 0" stroke="#2F3031" stroke-width="1.25"/>
<path d="M2128 1500L2128 0" stroke="#2F3031" stroke-width="1.25"/>
</svg>
