<svg width="563" height="704" viewBox="0 0 563 704" fill="none" xmlns="http://www.w3.org/2000/svg">
<path fill-rule="evenodd" clip-rule="evenodd" d="M419.756 134.467C419.52 134.562 419.36 134.918 419.265 135.454C419.003 135.536 418.778 135.728 418.711 136.019C418.512 136.873 418.744 137.763 418.923 138.614L418.944 138.712C419.113 139.536 419.32 140.355 419.573 141.158L419.61 141.361C420.225 144.68 421.412 147.836 422.806 147.3L422.484 147.884C417.015 157.776 401.394 184.336 389.198 180.55C382.096 177.713 382.198 168.491 382.717 162.072C387.99 165.296 388.977 140.617 387.896 137.89C387.035 137.259 386.62 142.936 386.3 143.719C385.601 146.833 384.744 149.907 383.94 152.995C382.239 153.33 380.631 154.006 379.209 154.974C379.141 155.013 379.072 155.048 379.005 155.088C378.152 155.606 377.486 156.266 376.893 156.997C376.222 157.745 375.648 158.564 375.106 159.406C373.915 160.754 372.78 162.153 371.607 163.516C371.05 164.163 370.48 164.79 369.897 165.402L369.448 165.778C369.373 165.84 369.298 165.903 369.222 165.964C355.748 174.349 346.421 186.895 346.394 203.236C346.355 213.444 344.882 223.64 342.08 233.459C339.834 243.052 332.579 252.858 336.501 262.876C332.073 262.169 331.662 267.844 328.892 269.988L328.022 270.223C324.132 271.267 320.564 272.137 316.583 272.743C312.915 273.182 308.673 272.699 305.226 274.349C304.051 275.18 304.472 276.68 304.38 277.917C295.68 274.37 287.867 269.469 279.76 264.859L279.489 264.762C276.488 263.701 271.136 262.106 268.671 264.437C267.229 266.127 268.685 267.637 269.966 268.769C272.379 270.9 274.937 272.855 277.409 274.914C270.749 275.468 264.07 275.026 257.484 273.95L257.125 273.89C255.511 273.629 253.609 273.002 252.008 273.596C246.818 276.483 252.824 279.853 255.61 281.54C253.487 281.363 251.367 281.1 249.24 280.737C248.394 280.593 247.782 281.073 247.689 281.914C247.635 285.948 252.966 286.165 255.707 287.708L255.488 287.656C253.695 287.242 251.118 286.879 250.557 289.105C249.97 291.839 253.667 292.943 255.564 293.672C270.342 298.607 286.398 300.105 301.862 298.238C302.997 303.548 312.632 314.603 317.936 316.196C323.814 317.657 330.883 313.028 336.237 310.785C349.954 303.83 362.664 292.357 366.576 277.135C369.864 300.738 368.535 324.533 363.6 347.755C362.801 349.566 361.958 351.348 361.009 353.085C360.723 353.131 360.48 353.322 360.424 353.708C360.395 353.92 360.352 354.125 360.304 354.328C359.36 355.928 358.324 357.464 357.363 359.054C357.165 359.383 356.969 359.724 356.789 360.073C350.392 367.594 358.189 377.285 365.163 381.339C326.465 444.199 351.459 523.414 325.24 590.013L325.182 590.203C324.187 593.37 321.156 599.89 325.539 601.382C326.931 604.515 333.944 604.885 337.06 605.866C335.372 610.74 333.494 615.562 330.976 620.08L330.93 620.101V620.101C329.927 619.365 327.776 618.606 326.887 619.407C326.671 619.434 326.455 619.495 326.245 619.599C324.869 620.28 323.762 621.583 322.446 622.404C321.734 622.847 320.995 623.25 320.233 623.602C319.524 623.93 318.77 624.146 318.191 624.686C318.008 624.856 317.962 625.072 318.007 625.272C317.55 625.509 317.094 625.745 316.639 625.984L316.392 625.829C312.37 623.332 309.136 621.979 314.987 626.777C312.89 627.743 310.741 628.588 308.577 629.379C306.934 628.592 305.18 628.017 303.372 627.938C303.047 628.339 305.532 629.887 305.942 630.314C294.939 634.113 282.835 637.087 274.571 645.814L274.479 645.918C273.072 647.499 270.899 649.643 271.835 651.861C269.444 652.866 268.268 656.162 268.954 658.772C272.403 670.208 325.274 665.695 337.148 665.994C346.538 664.8 371.992 666.758 377.214 659.633C378.972 657.659 378.564 653.819 376.063 652.781C377.799 651.451 375.899 646.468 375.894 644.23L375.855 643.971C375.589 642.3 374.436 635.761 373.241 631.192C373.216 630.832 373.168 630.463 373.11 630.091L373.073 629.856C372.835 628.399 372.47 626.918 371.526 625.746C370.848 624.905 369.909 624.386 368.89 624.198C368.617 622.459 368.393 620.715 368.2 618.968C368.064 616.914 368.013 614.857 368.036 612.799C368.048 611.759 368.076 610.721 368.127 609.682C368.164 608.918 368.12 608.011 368.315 607.23C368.444 607.362 368.629 607.433 368.836 607.362C369.275 607.213 369.679 606.936 370.082 606.709C370.098 606.701 370.11 606.691 370.123 606.682C372.276 608.076 373.834 602.111 374.672 600.493C393.966 545.319 378.732 481.822 410.009 430.081C414.327 439.319 418.037 447.794 422.193 457.096C435.173 486.147 451.196 537.319 461.942 568.08C464.866 574.368 468.302 580.446 472.387 586.06C473.693 587.537 474.569 589.709 476.46 590.502L476.625 590.527V590.527C477.13 591.467 477.83 592.259 478.872 592.232C479.127 592.226 479.388 592.197 479.651 592.152C480.574 598.553 481.735 604.994 483.278 611.293L483.07 611.206C482.06 610.79 480.997 610.435 479.961 610.528C477.445 611.162 478.377 613.355 480.365 614.078C477.89 614.845 476.215 617.007 474.377 618.807C472.824 617.972 471.083 617.539 469.223 617.722C468.938 617.749 468.721 617.873 468.57 618.044C468.463 618.045 468.359 618.05 468.261 618.067L468.463 618.189V618.189C468.133 618.743 468.369 619.586 469.223 619.591C469.893 619.594 470.538 619.655 471.162 619.77C471.595 620.022 472.026 620.277 472.452 620.544C471.017 621.807 469.49 622.971 467.918 624.036C467.087 623.613 466.209 623.258 465.296 622.974C464.116 622.607 463.602 624.476 464.786 624.815C465.038 624.886 465.287 624.966 465.534 625.052L465.777 625.199C465.834 625.233 465.893 625.268 465.955 625.304C454.672 633.302 435.601 632.289 430.442 647.267C430.271 647.832 430.359 648.319 430.599 648.703C429.481 649.726 428.965 651.564 429.217 652.974L429.195 653.093C429.004 654.234 429.28 655.236 430.509 655.496C438.714 656.258 446.899 656.742 455.14 656.892L455.805 656.897C467.612 656.977 525.04 656.549 527.63 648.99C528.321 647.59 528.534 645.419 527.523 644.171C527.406 643.499 527.175 642.888 526.764 642.409C528.428 640.734 527.61 636.512 527.813 634.385C527.448 627.286 526.003 619.673 521.651 613.864C521.58 613.772 521.494 613.715 521.405 613.688C520.645 612.926 519.646 612.445 518.504 612.38C518.469 612.292 518.433 612.203 518.398 612.115C517.51 610.028 516.667 607.902 515.829 605.767C515.208 603.34 514.559 600.92 513.91 598.513C513.26 596.108 512.625 593.699 512.004 591.287C511.509 589.364 511.084 587.197 510.228 585.36C510.251 585.281 510.273 585.203 510.299 585.125L511.19 584.765C517.026 582.4 526.273 578.411 524.241 575.776C502.59 530.921 481.397 467.063 461.528 420.561C461.218 419.649 460.89 418.743 460.529 417.845C459.652 415.658 458.763 413.475 457.862 411.298L457.319 409.993L448.663 389.228V389.228C447.757 387.054 446.736 384.892 446.022 382.646C445.334 380.483 445.149 378.331 446.456 376.362C447.626 374.6 449.274 373.142 450.592 371.488C451.59 370.236 452.562 368.9 453.433 367.495C454.224 366.455 454.885 365.265 455.475 364.306C456.421 362.769 457.623 361.066 458.309 359.29C459.194 358.734 460.081 358.18 460.97 357.633C462.507 356.774 464.019 355.875 465.491 354.902C467.35 353.799 469.221 352.717 471.107 351.658C471.788 351.322 472.469 350.986 473.15 350.652C475.193 350.828 480.837 348.318 482.76 346.619C482.979 346.575 483.198 346.525 483.415 346.471C483.502 347.555 483.858 348.538 484.686 349.266C490.195 351.992 497.217 339.648 499.152 335.529C502.998 339.275 493.822 357.803 490.858 361.591L490.699 361.826C489.907 363.01 489.075 364.34 487.951 365.215L487.837 365.301C487.067 365.87 486.924 366.758 487.552 367.505C492.891 372.311 498.495 361.759 501.42 358.282C513.458 340.615 521.15 319.116 520.813 297.624C526.289 295.797 533.871 294.904 533.593 287.496C533.873 281.905 534.887 276.373 535.084 270.777C535.141 269.49 531.129 270.128 530.223 270.264C531.557 257.406 529.542 244.351 525.948 231.994C516.512 200.374 477.654 143.383 439.407 141.325C439.441 141.263 439.425 141.179 439.339 141.157C437.608 140.709 435.695 140.781 433.916 140.837C432.065 140.896 430.183 140.908 428.341 141.117C426.432 141.333 424.411 142.032 423.129 143.416L422.685 142.617C422.169 141.684 421.672 140.742 421.297 139.713C421.107 139.193 420.958 138.654 420.822 138.109C420.669 137.332 420.63 136.523 420.261 135.817C420.252 135.798 420.239 135.783 420.229 135.766C420.096 135.321 419.944 134.886 419.756 134.467ZM372.815 652.753C373.361 653.307 374.309 653.549 375.148 653.284C377.937 661.184 362.806 660.688 357.949 661.133C352.771 661.683 258.439 666.574 274.392 654.991C293.108 662.103 355.708 662.887 372.815 652.753ZM326.875 621.428C328.135 622.723 330.033 623.299 331.384 624.534C335.203 627.754 338.275 632.285 343.552 633.138C350.486 634.428 356.736 631.017 362.938 628.315C363.71 628.279 364.516 627.953 365.308 627.712C365.336 627.77 365.364 627.827 365.395 627.88C365.434 627.865 365.475 627.852 365.521 627.845C365.59 627.833 365.655 627.826 365.723 627.816C365.882 627.689 366.05 627.583 366.224 627.493C366.329 627.477 366.433 627.464 366.537 627.458C367.815 627.38 369.202 627.676 370.022 628.732C370.093 628.822 370.156 628.917 370.218 629.013C370.615 630.418 370.666 632.117 370.474 633.305C370.412 633.693 370.575 634.074 370.849 634.295C371.094 640.172 371.758 646.074 372.221 651.873C369.902 652.704 367.495 653.337 365.086 653.738C348.462 655.775 331.66 656.722 314.908 656.209C304.936 655.85 294.978 654.962 285.109 653.485C281.918 653.186 278.653 651.955 275.465 652.452C275.329 652.197 275.117 651.978 274.823 651.829C282.995 640.674 296.962 637.658 309.139 632.767C311.15 634.049 312.388 636.718 314.629 637.513C315.498 637.643 316.707 637.132 316.58 636.032C316.218 633.781 313.779 632.754 312.136 631.447C313.899 630.626 315.628 629.734 317.315 628.742C318.972 630.231 320.933 631.364 322.485 632.952C321.603 635.099 325.28 634.913 325.321 632.628C325.066 630.101 321.05 629.031 319.256 627.558C322.058 625.858 324.561 623.713 326.875 621.428ZM524.301 643.514C524.399 643.706 524.559 643.881 524.795 644.017C525.203 644.253 525.007 645.499 524.986 645.919L524.985 645.95C524.963 646.704 524.916 647.456 524.85 648.207C524.16 648.827 523.278 649.299 522.298 649.582C492.454 654.329 462.037 654.714 431.905 652.991C432.043 652.193 432.629 651.535 433.147 650.869C452.197 652.484 471.704 650.795 490.785 649.222C501.94 647.76 513.628 647.155 524.301 643.514ZM480.852 614.302C485.77 615.99 490.347 618.332 494.707 621.137C496.327 622.187 497.873 623.392 499.735 623.995C506.184 625.929 515.852 616.636 516.007 616.532C518.246 615.029 520.621 616.43 521.839 618.513C521.952 618.706 523.82 629.359 523.763 634.578C524.098 636.351 523.204 639.251 523.68 641.186C523.306 641.635 522.773 641.846 522.414 642.315C522.283 642.485 522.32 642.677 522.433 642.822C505.019 644.251 487.707 646.961 470.21 647.533C458.235 648.165 446.238 648.02 434.261 647.875C436.986 639.9 446.267 637.794 453.356 635.169C458.713 633.251 463.644 630.393 467.983 626.719C469.865 628.036 471.349 629.881 472.682 631.735C473.288 632.488 474.532 633.057 475.18 632.013C475.848 630.93 474.544 629.561 472.934 628.361C472.087 627.111 471.019 626.046 469.789 625.168C471.149 623.96 472.458 622.702 473.685 621.363C476.228 623.081 478.097 625.552 479.926 627.95C480.805 628.906 482.45 627.642 481.729 626.565C481.151 625.822 480.5 625.137 479.803 624.495C478.753 622.52 477.242 620.697 475.408 619.434L475.547 619.257C477.079 617.297 478.404 614.946 480.852 614.302ZM524.189 642.263C524.231 642.314 524.275 642.365 524.323 642.412C524.28 642.498 524.248 642.588 524.224 642.68L523.777 642.715V642.715C523.933 642.587 524.069 642.431 524.189 642.263ZM338.696 606.189C347.82 607.906 357.245 608.566 366.454 607.148C365.387 613.076 364.719 619.042 365.069 625.062C351.3 629.024 345.579 635.63 334.124 622.427C334.677 621.587 334.996 620.556 335.368 619.561C336.951 615.244 338.26 610.779 338.696 606.189ZM506.27 586.745C506.4 587.032 506.635 587.268 506.973 587.372C507.094 587.903 507.218 588.433 507.351 588.963C507.575 591.694 508.609 594.402 509.678 596.922C509.752 597.095 509.824 597.269 509.897 597.444C510.602 599.539 511.342 601.631 512.071 603.725C512.624 605.9 513.111 608.093 513.62 610.278C513.718 611.761 513.929 613.231 514.254 614.684C514.269 614.752 514.289 614.814 514.311 614.874C513.801 615.101 513.309 615.363 512.845 615.628C498.876 626.089 501.288 619.095 487.876 613.239C487.953 612.676 487.671 612.168 487.44 611.586L487.41 611.51C487.396 611.473 487.382 611.436 487.368 611.399C487.39 611.177 487.377 610.938 487.318 610.685C485.96 605.147 484.068 599.705 482.298 594.286C482.015 593.47 481.687 592.672 481.351 591.876C489.855 591.767 498.267 589.51 506.27 586.745ZM453.531 362.326C376.373 458.222 393.276 469.531 376.663 580.087C375.049 588.693 371.77 596.861 369.599 605.303L369.3 605.274C369.003 605.246 368.721 605.228 368.511 605.295L368.503 605.299V605.299L367.647 605.288C357.665 605.151 347.639 604.631 337.889 602.363C334.441 601.759 331.081 600.176 327.631 599.844C327.617 599.398 327.404 598.981 327.115 598.74C353.727 536 335.186 464.332 358.274 400.526C360.465 394.141 363.075 387.898 365.774 381.711C395.449 399.395 428.613 379.369 453.531 362.326ZM509.949 589.436C510.114 590.159 510.293 590.873 510.456 591.563L510.697 592.591C510.355 591.551 510.085 590.497 509.949 589.436ZM443.176 379.308C443.125 380.894 443.509 382.492 444.029 383.983C445.695 388.761 447.829 393.416 449.739 398.102C451.036 401.282 452.32 404.466 453.619 407.646C472.853 458.861 496.463 527.51 519.758 576.046C510.981 581.109 501.358 584.691 491.402 586.631C489.09 587.402 482.479 587.436 480.139 588.658L479.606 588.137V588.137C479.514 585.952 477.029 584.394 476.034 582.478C471.543 576.172 467.963 569.276 464.715 562.268L464.185 560.73C455.551 535.67 444.283 501.174 432.412 472.011L432.045 471.111C427.126 459.084 423.892 447.997 417.955 438.898C417.631 438.409 417.304 437.918 416.974 437.428C416.731 436.942 416.486 436.456 416.237 435.972C415.173 433.903 414.025 431.88 412.942 429.821C412.48 428.943 412.022 427.954 411.779 426.94C421.211 410.427 432.45 394.993 443.176 379.308ZM429.051 142.676C432.011 143.394 435.044 143.687 438.02 144.283C458.537 146.721 474.266 161.221 487.815 175.618C513.481 202.485 528.414 235.544 527.312 272.908C518.146 274.572 509.075 277.008 499.737 277.54C501.094 275.491 498.821 272.928 498.039 270.967C484.531 244.958 474.102 216.246 465.633 188.863L465.863 190.059C468.522 203.801 471.62 217.486 476.348 230.687C474.978 229.345 452.48 211.512 454.239 217.409C461.112 222.763 468.876 227.006 476.078 231.92C467.515 260.43 479.895 289.316 482.247 317.838C482.838 324.18 482.787 330.566 483.581 336.884C483.883 337.598 483.565 339.051 484.01 339.731C483.681 341.408 482.988 342.936 481.558 344.244C480.956 344.795 480.299 345.273 479.609 345.699C477.885 345.958 476.153 346.62 474.748 347.232C471.624 348.596 468.874 350.607 466.081 352.528L466.006 352.578V352.578C461.503 354.884 457.004 357.504 452.489 360.236L452.287 360.341C450.608 361.219 448.891 362.012 447.427 363.23C447.361 363.286 447.316 363.349 447.287 363.416L444.544 365.104C422.577 378.615 399.927 391.977 374.171 382.332C366.935 379.428 356.415 373.542 357.766 364.441C358.032 363.568 358.437 362.749 358.895 361.95C359.023 361.779 359.153 361.61 359.285 361.445C360.283 360.188 361.4 359.034 362.267 357.676C362.62 357.124 362.936 356.555 363.212 355.97C363.408 355.911 363.581 355.774 363.691 355.535C364.93 352.841 366.145 350.142 367.276 347.399C380.986 299.764 364.344 248.582 359.636 200.536C359.31 197.785 358.829 195.005 358.831 192.234C358.831 192.104 358.642 192.108 358.631 192.234C356.971 204.497 358.23 216.874 359.809 229.081C361.831 244.353 364.486 259.561 366.311 274.86C361.46 290.282 347.876 301.425 333.611 308.107C331.184 309.256 328.703 310.28 326.173 311.182L326.003 311.24C323.223 312.21 320.085 313.709 317.403 311.744C312.255 308.263 308.622 302.951 305.286 297.835C306.635 297.689 307.986 297.563 309.339 297.47C312.659 301.255 316.727 304.468 321.02 307.094C322.77 308.093 324.757 307.67 325.566 305.714C326.33 303.869 325.395 301.713 324.718 299.933L324.62 299.673C321.194 290.465 315.245 282.027 307.212 276.26C313.273 275.053 319.567 275.089 325.381 272.703C325.064 273.035 325.479 273.406 325.681 273.688C325.609 274.233 326.007 274.632 326.496 274.779C331.24 280.955 334.835 288.27 335.586 296.103C335.386 298.771 337.782 301.853 340.089 299.051C341.893 291.253 334.796 279.066 328.555 274.254C334.813 269.973 332.989 263.795 336.918 263.767C337.933 265.709 339.258 267.569 340.928 269.011C341.682 269.623 342.599 270.084 343.409 270.626C344.261 271.197 345.148 269.942 344.473 269.252L344.295 269.039C341.733 265.984 338.69 262.982 338.16 258.849C337.395 253.76 339.69 248.604 341.45 243.955C344.823 235.043 347.06 225.77 348.149 216.307C349.384 207.828 347.883 199.033 350.795 190.829C351.374 188.544 352.207 186.463 353.227 184.531C353.252 184.511 353.276 184.491 353.298 184.465C354.509 183.069 355.477 181.515 356.607 180.052C357.788 178.522 359.069 177.066 360.425 175.688C362.692 173.385 365.195 171.464 367.805 169.614C367.853 169.597 367.902 169.575 367.951 169.546C368.439 169.258 368.909 168.908 369.362 168.524L369.406 168.494C370.923 167.443 372.472 166.302 373.656 164.875C374.818 163.475 375.646 161.841 376.595 160.298C377.892 158.721 379.129 157.031 380.693 155.717C381.578 155.214 382.499 154.739 383.289 154.109C383.418 154.055 383.55 154.004 383.683 153.956C383.347 155.324 382.838 156.582 382.379 157.971C381.714 157.692 380.804 158.001 380.693 159.022L380.651 159.403C379.984 165.652 379.646 173.213 383.334 178.624C391.454 190.356 403.583 180.339 409.717 172.089C415.221 165.509 419.849 158.19 423.267 150.325L423.323 150.221C423.96 149.017 425.339 145.347 425.729 143.583C426.714 143.066 427.913 142.815 429.051 142.676ZM455.048 361.355C455.073 361.386 455.101 361.412 455.131 361.436C453.98 363.066 452.882 364.752 451.752 366.387C452.679 364.877 453.55 363.355 454.322 361.817C454.563 361.662 454.806 361.509 455.048 361.355ZM519.502 298.03C515.1 321.84 508.81 346.892 491.284 364.695C496.739 357.039 500.98 348.101 502.215 338.74C502.266 336.228 501.347 333.574 498.558 333.202C498.082 333.138 497.72 333.563 497.55 333.941L497.533 333.979C496.436 336.589 495.009 339.072 493.319 341.347L493.154 341.562C491.879 343.205 486.466 349.902 485.711 346.701C486.264 330.518 503.049 323.845 505.798 301.557C510.501 301.06 514.964 299.28 519.502 298.03ZM483.418 345.26C483.4 345.514 483.391 345.765 483.395 346.013C483.146 345.91 482.889 345.828 482.627 345.764C482.893 345.6 483.156 345.432 483.418 345.26ZM483.667 343.516C483.575 343.981 483.497 344.45 483.449 344.915C482.97 345.067 482.496 345.233 482.024 345.405C482.31 345.15 482.582 344.879 482.837 344.591C483.134 344.254 483.412 343.894 483.667 343.516ZM477.18 233.048C480.618 242.609 484.469 252.022 488.768 261.231C491.655 266.619 493.581 272.898 497.576 277.574C497.615 277.611 497.654 277.646 497.694 277.678L497.628 277.681C496.437 277.734 489.97 278.368 493.29 279.825C494.579 284.886 496.268 289.832 497.68 294.86L497.711 295.006C498.228 297.437 498.881 302.336 502.348 300.701C502.724 300.988 503.176 301.189 503.662 301.324C502.103 314.951 493.453 323.822 486.615 334.948C488.144 329.076 487.697 322.944 487.165 316.949L487.033 315.474C484.208 287.985 473.839 260.954 477.18 233.048ZM448.465 320.426C454.038 313.504 481.449 244.975 462.078 286.492C455.193 300.946 449.526 316.419 438.168 328.13C437.383 328.971 438.418 330.448 439.438 329.769C443.105 327.33 446.072 324.095 448.465 320.426ZM468.304 237.598C468.327 237.487 468.184 237.426 468.121 237.521C460.674 252.17 455.356 267.913 446.941 282.119C441.861 290.916 435.766 299.115 428.786 306.509C428.262 307.065 429.051 307.832 429.619 307.339C449.544 289.024 459.231 262.401 468.304 237.598ZM321.448 297.91L321.46 297.912V297.912L321.643 298.384C321.706 298.543 321.769 298.704 321.833 298.866C321.802 298.852 321.772 298.84 321.741 298.827C321.676 298.762 321.61 298.695 321.545 298.625C321.56 298.385 321.53 298.143 321.448 297.91ZM530.145 270.839C531.156 271.234 532.399 271.309 533.517 271.406C532.265 277.282 531.185 283.204 530.051 289.097C529.527 290.905 528.296 291.54 526.591 292.114L525.221 292.55C518.824 294.593 512.391 296.69 505.795 297.943C505.332 297.642 504.673 297.656 504.365 298.138C504.044 298.168 503.715 298.186 503.389 298.217C501.627 291.733 498.611 285.45 494.576 280.071C505.855 280.433 517.216 277.47 527.946 274.156C528.381 274.366 528.953 274.235 529.136 273.738L529.302 273.69C531.103 273.158 533.491 271.85 529.706 272.514C529.934 271.983 530.061 271.412 530.145 270.839ZM270.788 266.041C278.264 264.81 283.978 270.845 290.359 273.615C294.179 275.248 304.36 280.312 308.061 278.627C313.135 283.494 317.42 289.179 320.415 295.559C319.599 295.51 318.782 295.474 317.965 295.448C316.486 294.975 314.906 294.951 313.37 295.406C297.984 295.575 282.588 298.554 267.264 294.779L266.912 294.713C263.764 294.118 253.017 291.855 252.404 289.637C252.565 288.671 255.455 289.691 256.01 289.8C260.427 290.667 264.915 291.081 269.39 291.515C270.635 291.635 270.619 289.706 269.39 289.583C264.003 289.049 258.899 287.034 253.956 284.938C253.43 284.706 252.038 284.225 251.075 283.601C255.642 284.375 260.348 284.509 264.97 284.345C266.561 284.14 266.673 281.732 264.97 281.78C261.85 282.124 258.87 280.589 256.323 278.97L255.768 278.611C251.523 275.854 251.82 275.735 257.185 276.759C265.068 278.19 273.047 278.137 281.008 277.591C282.144 277.572 282.929 276.049 281.989 275.233C278.323 272.079 274.393 269.267 270.788 266.041ZM306.927 277.527L307.013 277.609C307.196 277.783 307.346 277.938 307.43 278.021L307.464 278.053C307.577 278.159 307.686 278.268 307.798 278.374C307.309 278.538 306.77 278.547 306.213 278.461C306.549 278.252 306.799 277.91 306.927 277.527ZM447.389 252.306L447.407 252.283L447.366 252.328C442.556 257.513 437.682 265.921 433.697 272.552C433.172 277.987 444.953 255.438 447.389 252.306ZM326.368 272.343C326.321 272.401 326.276 272.46 326.233 272.521L326.168 272.612L326.065 272.549C326.027 272.526 325.987 272.512 325.946 272.501C326.087 272.45 326.227 272.396 326.368 272.343ZM348.372 254.643C344.044 255.32 352.893 260.676 354.061 261.444C354.809 261.727 361.92 267.576 361.488 265.677C358.159 261.419 353.566 256.457 348.372 254.643ZM517.648 243.419C516.048 240.851 507.337 244.231 504.584 244.636C503.036 245.043 501.505 245.525 499.941 245.867C498.719 246.309 493.019 245.881 495.11 248.288C497.293 249.457 500.143 248.553 502.378 247.933C506.826 246.722 511.289 245.31 515.843 244.639C515.98 244.57 515.988 244.616 515.869 244.777C514.889 246.946 512.828 248.981 510.508 249.68C510.347 249.726 510.415 249.97 510.577 249.929L510.733 249.896C513.343 249.316 518.982 246.564 517.648 243.419Z" fill="black"/>
<path fill-rule="evenodd" clip-rule="evenodd" d="M413.116 42.1565C406.471 41.246 397.301 44.2053 393.992 50.1724C378.194 46.462 358.268 46.3405 345.248 58.6922C331.661 73.344 348.727 92.6626 360.043 97.0181C359.219 101.007 360.503 126.561 369.593 137.96C376.806 147.618 393.605 152.075 401.378 140.539L401.439 140.444C402.272 139.112 401.555 139.154 400.7 140.145C393.088 146.814 382.739 146.928 374.763 139.89C359.817 127.027 361.358 95.4864 368.47 77.2398C388.723 75.0238 410.406 81.1391 424.395 96.3269L423.449 102C423.287 102.967 423.104 103.932 422.965 104.902C422.875 105.524 422.865 106.142 423.298 106.645C424.725 108.305 427.13 105.81 429.108 104.817C429.693 104.735 430.278 104.704 430.852 104.744C440.359 105.964 438.486 124.338 428.037 121.117C427.159 120.572 426.404 120.738 426.064 121.529C423.573 123.802 421.931 127.855 417.793 131.76C416.333 133.224 415.004 134.449 413.362 135.624C412.397 136.596 409.487 137.587 410.409 139.25C412.154 143.034 422.444 131.147 424.263 127.86C429.963 130.102 436.279 129.341 442.186 128.793C473.347 127.179 469.187 94.4548 443.645 73.7945C438.837 70.2683 433.532 67.3916 428.018 65.178C427.265 64.8758 427.594 63.6444 428.358 63.9508C432.006 65.4158 435.563 67.1594 438.954 69.1775L438.959 67.9709C438.964 65.9388 438.932 63.8232 438.577 61.9665C438.4 60.6799 438.102 59.3058 437.644 58.272C437.077 55.1027 428.196 44.224 413.116 42.1565ZM431.268 108.962C430.786 108.507 429.888 109.05 429.46 109.036C428.365 109.186 427.324 109.647 426.512 110.215C425.977 110.514 425.601 110.795 425.287 111.054L425.279 111.051C425.281 111.051 425.284 111.054 425.287 111.054L425.257 111.074C424.8 111.398 423.127 113.219 424.184 112.729C424.263 112.627 424.344 112.529 424.425 112.433C424.434 112.446 424.446 112.459 424.46 112.472L424.401 112.56C423.503 113.906 425.054 112.488 425.292 112.111C425.303 112.12 425.316 112.126 425.329 112.133L425.018 112.509C424.975 112.563 424.94 112.606 424.912 112.642L424.847 112.705C423.808 113.722 423.776 114.637 424.982 113.133C424.935 113.204 424.897 113.279 424.891 113.346L424.82 113.437C423.872 114.653 424.643 114.221 425.114 113.701L425.153 113.657L425.145 113.669C424.707 114.341 425.576 113.869 425.73 113.51L425.736 113.494C425.903 113.358 426.006 113.205 426.042 113.167L426.048 113.16C426.863 112.329 428.043 111.625 429.046 111.306C429.192 111.278 429.339 111.256 429.487 111.24C430.091 111.106 430.7 111.014 431.316 110.965C431.392 110.956 431.468 110.901 431.525 110.829C432.457 110.798 432.169 110.418 431.783 110.347L431.776 110.346L431.853 110.339C432.451 110.281 432.859 110.068 432.254 109.936L432.178 109.921C432.187 109.907 432.195 109.892 432.203 109.877C432.721 109.821 432.383 109.319 432.096 109.441C432.217 109.047 431.664 109.243 431.595 109.185C431.543 109.127 431.477 109.075 431.44 109.073C431.273 108.956 431.354 108.966 431.268 108.962ZM428.1 102.586L428.221 102.656C428.319 102.713 428.42 102.751 428.521 102.774C428.378 102.834 428.237 102.9 428.097 102.97C428.099 102.884 428.101 102.799 428.101 102.713L428.1 102.586Z" fill="black"/>
<path fill-rule="evenodd" clip-rule="evenodd" d="M380.728 128.562C382.297 129.015 383.98 129.055 385.579 128.588C387.028 128.164 388.517 127.231 389.584 125.997C390.532 124.9 391.146 123.567 391.122 122.145C391.12 121.982 391.061 121.847 390.972 121.742C390.875 121.628 390.74 121.55 390.596 121.517C390.447 121.482 390.29 121.494 390.156 121.555C390.035 121.61 389.931 121.703 389.866 121.839C389.702 122.053 389.539 122.265 389.375 122.47C388.056 124.093 386.779 125.305 384.797 125.74C383.721 125.976 382.646 125.871 381.66 125.511C380.605 125.126 379.651 124.448 378.903 123.581C378.566 123.189 378.167 123.029 377.777 123.026C377.335 123.023 376.898 123.228 376.569 123.555C376.245 123.876 376.029 124.313 376.009 124.77C375.992 125.171 376.123 125.59 376.473 125.964C377.623 127.195 379.115 128.097 380.728 128.562ZM380.777 108.246C379.169 109.219 376.719 111.489 378.449 113.903C380.485 116.031 383.416 113.591 384.86 112.487C386.199 111.632 387.704 113.832 386.461 114.83C376.025 122.528 371.789 108.5 379.964 107.101C380.864 106.947 381.198 107.944 380.777 108.246ZM395.815 103.962C396.332 103.633 396.94 103.52 397.613 103.825C398.14 104.064 399.063 104.859 399.706 105.904C400.145 106.619 400.457 107.458 400.392 108.331C400.377 108.534 400.452 108.684 400.571 108.794C400.665 108.882 400.8 108.946 400.959 108.966C401.094 108.983 401.245 108.968 401.368 108.929C401.602 108.857 401.726 108.706 401.772 108.582C402.222 107.392 402.028 106.064 401.524 104.865C400.844 103.248 399.608 101.894 398.798 101.457C397.413 100.709 395.779 100.675 394.391 101.436C393.21 102.085 392.472 103.131 391.737 104.198C391.581 104.425 391.426 104.65 391.266 104.871C390.945 105.314 390.913 105.754 391.037 106.131C391.175 106.548 391.526 106.901 391.965 107.085C392.371 107.255 392.842 107.279 393.259 107.104C393.611 106.956 393.934 106.668 394.138 106.179C394.483 105.355 395.056 104.445 395.815 103.962V103.962ZM369.573 105.795C369.927 105.979 370.204 106.034 370.596 105.917C370.813 105.852 371.028 105.728 371.196 105.56C371.362 105.395 371.482 105.188 371.529 104.96C371.644 104.395 371.954 103.866 372.396 103.522C372.774 103.227 373.25 103.071 373.779 103.159C374.35 103.254 374.893 103.619 375.268 104.049C375.393 104.192 375.491 104.356 375.59 104.518C375.774 104.821 375.954 105.104 376.208 105.326C376.305 105.411 376.45 105.47 376.591 105.47C376.648 105.47 376.706 105.461 376.761 105.443C377.329 104.876 377.438 104.445 377.42 104.017C377.401 103.569 377.224 103.116 376.937 102.692C376.265 101.699 374.988 100.885 374.127 100.701C372.948 100.448 371.776 100.751 370.837 101.408C369.871 102.083 369.155 103.131 368.931 104.313C368.878 104.598 368.9 104.905 369.009 105.171C369.116 105.431 369.301 105.654 369.573 105.795ZM393.214 93.3748C393.922 94.0618 394.759 94.1683 395.607 94.2629C396.078 94.316 396.454 94.3588 396.824 94.442C397.841 94.6707 398.846 95.0151 399.763 95.5111C400.721 96.0296 401.766 96.6549 402.518 97.456C402.696 97.6467 402.865 97.8467 403.034 98.0472C403.187 98.23 403.336 98.4059 403.492 98.5756C403.671 98.7705 403.841 98.9748 404.011 99.1785C404.116 99.3505 404.136 99.3927 404.157 99.4368C404.189 99.5029 404.226 99.5769 404.268 99.6563C404.326 99.7651 404.394 99.8841 404.464 99.992C404.582 100.189 404.646 100.244 404.7 100.268C404.791 100.308 404.877 100.328 404.96 100.317C405.039 100.307 405.112 100.27 405.185 100.209C405.549 99.9026 405.656 99.4006 405.645 98.8677C405.628 98.059 405.329 97.1637 405.053 96.6133C404.411 95.3345 403.521 94.005 402.451 93.0505C401.23 91.961 399.894 91.1362 398.359 90.5678C397.406 90.2145 396.301 89.8902 395.262 89.9311C394.515 89.9606 393.801 90.1821 393.211 90.7351C392.849 91.0746 392.675 91.5575 392.675 92.0401C392.675 92.5323 392.856 93.0274 393.214 93.3748ZM368.133 99.6665C368.178 99.74 368.241 99.7907 368.31 99.8211C368.383 99.853 368.464 99.8622 368.542 99.8491C368.619 99.8361 368.693 99.8011 368.751 99.7476C368.807 99.6963 368.85 99.6283 368.869 99.545C369.339 97.4886 370.251 95.9587 372.199 94.972C373.157 94.4867 374.259 94.1783 375.302 93.9325C375.605 93.861 375.925 93.8147 376.248 93.7678C377.259 93.6208 378.277 93.4524 378.936 92.6384C379.333 92.1481 379.499 91.5211 379.405 90.9476C379.316 90.4077 379 89.9126 378.424 89.6159C376.991 88.8776 375.21 89.602 373.762 90.2192C373.655 90.265 373.549 90.3099 373.446 90.3533C372.031 90.9485 370.74 91.7342 369.679 92.8578C368.837 93.7492 368.057 95.067 367.742 96.4226C367.481 97.5504 367.542 98.7018 368.133 99.6665Z" fill="black"/>
<path fill-rule="evenodd" clip-rule="evenodd" d="M399.743 130.054C398.02 126.031 394.258 123.075 389.926 121.994C386.746 121.202 383.408 121.228 380.165 121.542C378.467 121.705 376.645 121.839 375.044 122.468C373.677 123.005 372.563 124.02 371.725 125.211C370.728 126.623 370.049 128.238 369.573 129.894C369.506 130.13 369.442 130.367 369.383 130.605C369.59 131.855 370.029 132.919 371.191 133.704C372.325 134.471 373.677 134.785 375.026 134.896C375.158 134.833 375.286 134.768 375.403 134.702C377.504 133.503 378.983 130.671 381.635 131.055C384.002 131.397 385.56 134.364 386.967 136.103C391.485 136.628 396 135.275 399.676 132.702C399.863 131.821 399.874 130.932 399.743 130.054M366.312 127.003C366.673 125.992 367.129 125.014 367.668 124.092C369.452 121.043 372.19 118.614 375.441 117.225C383.131 113.945 393.081 116.257 399.292 121.637C401.413 123.476 403.558 126.179 404.207 129.086C404.401 129.124 404.583 129.225 404.734 129.366C409.221 126.552 413.842 123.844 417.457 119.943C420.083 117.109 421.909 113.754 423.028 110.068C423.119 109.765 423.61 109.809 423.595 110.145C423.591 110.223 423.587 110.302 423.582 110.38C423.629 110.236 423.85 110.31 423.867 110.45C424.469 114.928 425.222 119.675 424.529 124.177C424.114 126.863 422.889 128.829 421.252 130.952C419.498 133.228 417.512 135.345 415.482 137.375C414.194 138.663 412.848 140.15 411.27 141.094C409.435 142.192 407.354 143.027 405.396 143.874C403.404 144.738 401.382 145.536 399.322 146.228C395.203 147.617 390.947 148.577 386.616 148.997C383.148 149.332 379.185 149.698 375.862 148.398C373.315 147.402 371.259 145.602 369.628 143.436C367.853 141.077 366.45 138.39 365.674 135.557C364.868 132.614 366.142 127.477 366.312 127.003" fill="black"/>
<path fill-rule="evenodd" clip-rule="evenodd" d="M138.176 147.355C138.247 146.738 139.07 146.748 139.148 147.355C140.013 154.69 137.115 163.111 129.987 166.529C135.332 171.248 139.094 177.555 145.508 181.117C158.965 189.879 178.412 181.681 181.405 166.229C178.084 165.468 171.895 165.532 170.886 161.654C170.399 161.155 170.148 156.877 170.178 153.721C170.147 153.135 170.129 152.548 170.109 151.965C170.058 151.493 170.043 151.011 170.048 150.527C170.059 149.477 171.632 149.497 171.698 150.527C171.726 150.949 171.744 151.377 171.761 151.806C171.772 151.92 171.788 152.033 171.802 152.146C172.019 152.932 172.168 153.753 172.345 154.499C172.44 154.9 172.539 155.306 172.644 155.711C172.796 156.774 173.068 157.812 173.532 158.795C174.769 161.408 177.817 163.652 180.822 163.677C181.466 163.682 182.106 163.587 182.751 163.603C183.8 163.63 184.657 164.046 185.593 164.469C186.438 164.851 187.232 165.109 188.048 165.108C221.689 176.51 217.057 218.248 222.181 246.468C227.403 274.492 238.191 301.511 239.779 330.152C240.255 333.121 236.973 334.223 234.937 335.629C234.394 343.101 237.541 350.664 235.359 358.058C233.34 364.104 225.203 378.641 217.427 376.351C208.61 443.32 188.117 505.385 186.178 573.169C188.141 578.837 182.505 582.952 177.306 583.781L176.597 584.189C174.227 585.548 171.778 586.879 169.185 587.72C169.12 587.757 169.055 587.796 168.989 587.832C168.863 587.901 168.727 587.942 168.589 587.963C168.734 589.698 169.283 591.327 169.99 592.911C180.777 595.398 190.25 601.928 200.394 606.197C206.936 610.22 226.909 616.032 228.426 623.098L228.466 623.312C229.076 626.479 227.372 630.385 223.765 630.684C225.648 632.077 224.415 634.891 222.364 635.434C219.899 636.09 217.224 635.81 214.686 636.014C190.752 636.765 166.607 634.651 143.278 629.288C141.319 628.836 139.278 628.245 137.627 627.075C127.503 619.067 138.041 602.116 140.529 591.726C139.625 591.583 138.732 591.386 137.854 591.125L137.658 591.066C136.805 590.808 135.923 590.499 135.26 589.896C135.233 589.872 135.21 589.844 135.184 589.818C130.919 589.758 135.263 580.37 135.647 577.858C133.913 581.548 132.498 585.486 130.422 588.999C128.993 591.165 125.858 589.662 123.753 589.51C124.453 602.352 127.52 614.872 130.669 627.314C133.226 637.645 137.617 650.061 123.128 653.201C113.149 655.815 89.369 654.816 85.1154 643.895C83.861 635.003 86.6082 625.991 87.9669 617.228L88.2053 615.982C89.8272 607.462 91.3267 598.903 93.6789 590.543C94.0026 589.182 94.4011 587.848 94.8299 586.523C94.8857 585.75 94.9264 584.976 94.8762 584.2C94.8107 583.183 94.6184 582.188 94.4144 581.191C94.3882 581.064 94.3647 580.917 94.3406 580.76C90.1386 578.822 87.0184 576.631 86.6158 574.266C86.2038 572.022 87.0367 569.747 87.6542 567.605L87.6902 567.479C101.223 519.979 126.964 477.174 122.577 426.506C120.964 401.585 109.156 378.664 107.164 353.808C106.018 348.85 104.983 343.841 104.817 338.729C104.109 338.563 103.396 338.411 102.692 338.229C102.278 340.439 101.756 342.63 100.899 344.693C100.569 348.772 100.78 352.895 101.49 356.928C101.654 357.858 101.201 358.666 100.435 358.963C102.276 364.7 102.64 371.893 97.8907 376.337L97.4972 376.597C93.3716 379.342 92.9406 380.119 91.9809 385.234L88.8222 398.161C88.4261 399.761 87.9517 401.391 86.8104 402.647C83.7818 405.98 78.9613 403.804 77.3995 400.252C75.9739 396.612 75.9847 392.605 74.9439 388.857C74.1528 384.985 71.9589 381.678 69.7845 378.432C64.9237 370.979 64.5358 360.602 69.9556 353.303C70.4291 352.095 70.8625 350.906 71.3653 349.719C69.4898 347.52 70.6969 344.055 70.4815 341.364C70.4779 339.142 70.4371 336.921 70.3694 334.7C69.9738 321.583 68.6223 308.548 68.5732 295.43C68.0475 277.749 72.7023 260.623 75.4009 243.283C77.7212 226.159 77.5977 208.7 81.394 191.775C88.459 158.555 128.104 171.22 134.811 158.129C136.838 154.854 137.745 151.126 138.176 147.355ZM89.75 639.823C89.1503 644.24 92.2542 645.301 95.8133 646.644C104.888 649.971 115.366 650.76 124.59 647.588C126.225 646.897 127.394 645.863 127.975 644.347C115.174 645.516 101.731 644.666 89.75 639.823ZM138.554 620.152C139.358 624.12 144.472 624.586 147.896 625.253C156.074 626.964 164.332 628.338 172.636 629.309C188.727 631.249 205.006 631.583 221.176 630.847C221.613 630.658 221.893 630.296 222.444 630.296L222.512 630.298C222.543 630.298 222.572 630.301 222.603 630.302C222.334 630.125 222.104 629.892 221.933 629.617C194.139 626.563 166.176 624.484 138.554 620.152ZM165.727 586.133C159.052 587.292 152.238 587.903 145.497 586.85C145.043 592.426 142.883 597.841 141.185 603.176C150.498 605.637 156.661 595.31 164.991 593.343C164.519 590.876 164.687 588.284 165.727 586.133ZM96.9214 581.87C96.9438 581.909 96.9557 581.955 96.9512 582.011C96.9189 588.508 96.2599 594.981 95.3023 601.411C101.219 595.036 111.123 593.422 119.279 596.073L119.243 595.658C119.034 593.304 118.72 590.894 119.104 588.562L118.73 588.457C114.524 587.296 104.632 584.969 96.9214 581.87ZM218.804 336.859C182.367 346.637 143.581 347.25 106.763 339.165C108.599 345.051 109.978 351.044 110.952 357.119C113.04 372.743 118.791 387.509 122.665 402.732C127.134 420.698 128.199 435.826 125.975 454.178L125.907 454.734C121.009 495.888 100.952 533.457 91.5288 573.411C102.618 580.14 116.317 582.77 129.032 585.552C137.023 569.075 143.776 552.177 148.201 534.434C164.142 478.743 185.147 426.305 180.481 367.506C179.441 366.824 179.779 365.384 180.351 364.465C180.153 360.223 179.88 355.985 179.433 351.766C179.418 351.624 179.657 351.596 179.686 351.733C180.426 355.346 181.202 358.95 181.852 362.581C186.332 358.023 189.229 352.327 193.169 347.382C193.729 351.074 186.05 365.377 182.671 367.59C189.871 411.804 177.88 452.279 164.93 494.33C156.215 524.523 147.748 554.805 138.757 584.915C138.866 584.916 138.975 584.918 139.085 584.921C138.544 583.926 149.987 584.613 150.927 584.113C159.354 583.316 167.602 581.32 175.798 579.318L176.804 579.058C178.846 578.522 181.217 577.75 181.585 575.567L181.59 575.292C181.592 575.211 181.596 575.146 181.603 575.14L181.544 574.894C181.531 574.838 181.523 574.793 181.524 574.78L181.443 574.659C181.349 574.523 181.261 574.403 181.386 574.541C180.46 573.529 180.376 571.966 181.445 570.999C183.448 497.454 207.138 430.142 215.911 357.42C216.781 350.553 217.843 343.713 218.804 336.859ZM73.6633 351.098C69.4503 356.33 68.7266 363.631 70.3876 370.008C71.2598 373.172 73.0232 375.837 74.8413 378.55C78.0294 383.074 79.5164 388.331 80.3274 393.718L80.3502 393.82C80.7202 395.552 80.9498 400.329 83.3966 399.791C84.0392 399.378 84.3471 397.563 84.5731 396.614L87.3977 385.053C88.2153 381.706 88.7056 377.728 91.6027 375.411L91.945 375.193C94.3114 373.671 96.6199 371.906 96.9912 368.942C97.8065 365.307 96.2906 361.789 95.7243 358.256C88.1692 356.528 80.793 354.089 73.6633 351.098ZM234.014 336.161L233.761 336.285C230.855 337.733 222.184 342.418 219.948 340.619C220.001 351.327 219.143 361.983 217.886 372.605C218.208 372.534 218.539 372.543 218.836 372.652C225.14 370.907 231.99 358.994 232.518 352.872C232.949 347.299 231.842 341.486 234.014 336.161ZM130.371 172.035L130.05 171.611C126.638 167.122 124.723 165.519 118.821 167.914C119.614 168.895 119.988 170.21 119.65 171.572L119.627 171.659C117.765 179.315 108.214 183.751 101.223 179.586C98.7806 180.221 96.2339 178.466 96.1355 175.979C89.2178 180.049 86.0214 187.506 84.7242 194.995C89.2654 192.606 95.3719 194.886 97.1841 199.638C101.157 208.321 89.5799 217.355 82.5202 210.042C80.9906 224.689 80.2726 239.448 77.4862 253.942C79.5513 250.548 84.4748 249.749 87.4108 252.542C97.0242 260.836 85.9672 279.679 74.3461 270.696C72.9377 278.764 72.4408 286.947 72.5068 295.109C76.2307 293.675 78.2693 300.108 78.5393 302.83C78.8764 306.107 77.1837 312.977 73.2169 313.365L73.5432 318.605C74.0975 327.587 74.59 336.559 74.4667 345.563C74.6662 345.613 74.836 345.704 74.9782 345.821C74.9886 346.081 75.023 346.342 75.0725 346.599C75.1214 346.854 75.2837 346.989 75.4749 347.032L75.4815 347.042C75.4728 347.222 75.4375 347.402 75.3698 347.573C82.6507 350.619 90.1669 353.135 97.8225 355.116C97.6345 352.569 97.6821 350.029 97.9471 347.513C95.0527 344.762 98.6129 334.776 98.9543 330.895C100.292 323.118 101.31 315.293 102.21 307.458C99.5227 307.228 98.1468 304.424 97.4403 302.142C96.5193 299.63 95.9638 296.947 96.6123 294.306C97.2702 291.16 100.796 288.155 104.121 289.263L104.331 287.156C105.647 273.811 106.798 260.444 108.769 247.173C102.332 250.763 96.2529 242.957 97.8077 236.898C98.263 234.325 99.8303 231.833 102.143 230.497C104.188 229.322 108.416 228.158 109.758 230.743C110.386 230.823 110.975 231.129 111.419 231.582C112.81 224.385 114.501 217.132 117.193 210.311C108.686 204.97 110.277 191.524 121.474 191.506C136.573 192.799 132.556 214.81 117.993 210.671C113.419 238.219 110.783 265.994 108.444 293.796C110.204 296.664 109.925 300.919 107.509 303.333C106.459 313.39 105.184 323.427 103.509 333.403C114.586 335.87 125.799 337.911 137.133 338.851C137.678 335.347 141.492 333.478 144.788 333.196C146.97 332.962 149.344 333.79 151.429 334.186C153.948 335.15 156.009 337.364 156.929 339.78C167.51 339.844 178.098 339.175 188.58 337.805C187.522 332.536 195.196 328.519 199.869 329.339C201.739 329.569 203.563 330.276 204.965 331.538C206.334 331.829 207.62 333.01 207.96 334.432C211.671 333.55 215.472 332.878 219.058 331.568C222.576 330.414 223.726 327.52 222.815 324.099C212.864 328.082 204.421 312.281 213.916 306.566C215.131 305.667 217.664 305.085 218.377 306.785C218.498 306.806 218.619 306.832 218.738 306.861C217.948 303.609 217.154 300.359 216.359 297.109C211.797 296.674 210.273 289.985 214.062 287.636C212.773 282.244 211.523 276.842 210.349 271.424C204.097 272.712 198.915 264.942 200.238 259.329L200.28 259.159C201.027 256.108 203.299 253.107 206.656 252.6C205.863 248.015 205.154 243.415 204.558 238.799C203.693 237.88 203.306 236.508 203.642 235.295C203.886 226.422 202.085 217.287 202.811 208.288C196.177 216.344 182.353 210.861 185.511 200.231C185.326 190.383 199.336 186.893 204.061 195.599C204.567 193.742 205.217 191.894 205.535 189.98C205.584 189.76 205.923 189.804 205.943 190.011L205.944 190.034C206.648 202.627 206.13 215.302 207.483 227.881C212.539 228.129 214.604 240.175 209.112 241.04C211.189 255.044 214.308 268.866 217.699 282.623C223.591 281.111 225.869 293.761 221.018 295.889C222.43 301.481 223.834 307.073 225.205 312.675L225.232 312.663C225.944 311.44 227.842 311.576 229.063 311.81C233.095 313.294 231.39 320.582 227.001 320.136C229.395 327.334 227.877 334.013 219.889 336.486L219.893 336.715C220.14 336.522 220.441 336.366 220.805 336.264C225.797 334.864 230.458 332.689 234.76 329.869C233.494 309.085 227.471 288.936 222.597 268.776C216.996 267.884 215.209 258.921 219.579 255.621C216.554 242.235 215.683 228.547 214.203 214.953C210.168 214.075 209.149 207.608 212.791 205.627C210.483 188.746 201.793 174.516 185.578 167.279C185.052 169.682 184.18 172.015 183.012 174.198C183.122 174.204 183.227 174.218 183.331 174.235C183.358 174.283 183.391 174.331 183.435 174.377C184.314 175.274 184.876 176.284 185.233 177.365C185.268 177.597 185.306 177.829 185.345 178.061C185.306 178.156 185.262 178.25 185.212 178.342C186.949 184.939 178.806 188.311 173.308 186.835C172.456 186.668 171.899 186.191 171.602 185.588C161.868 190.815 149.165 189.713 140.396 182.802C134.023 186.201 125.817 178.262 130.371 172.035ZM84.6955 319.933C94.009 318.565 97.0553 333.513 89.5489 337.663C87.1286 339.099 83.8005 339.223 81.4175 337.637C75.0724 333.8 76.8373 320.721 84.6955 319.933ZM120.147 310.989C132 310.938 133.014 329.098 122.675 332.368C114.986 334.584 107.455 326.077 111.398 318.984C111.762 314.571 115.586 311.053 120.147 310.989ZM157.081 312.637C157.698 307.945 162.623 303.464 167.581 304.755C172.124 305.898 173.309 311.186 174.115 315.102C175.946 323.209 166.72 331.43 158.947 326.965C153.981 324.007 153.255 316.767 157.081 312.637ZM183.554 285.259C185.216 282.627 188.938 281.468 191.976 282.385C200.31 285.033 199.32 298.324 192.614 302.286C181.094 308.284 171.906 291.039 183.554 285.259ZM129.275 293.024C129.081 285.126 137.272 277.936 144.968 282.426C157.423 290.73 144.667 309.78 132.717 299.103C130.588 297.736 129.329 295.516 129.275 293.024ZM113.781 272.872C108.016 263.94 117.916 250.7 127.364 259.257C130.605 262.566 130.46 268.634 128.584 272.567C125.532 277.822 117.058 277.945 113.781 272.872ZM155.638 256.122C160.136 251.826 167.997 251.781 171.415 257.45C175.467 264.443 170.631 276.408 161.498 275.839C152.009 275.17 149.409 261.899 155.638 256.122ZM132.068 242.158C124.85 234.801 132.687 223.001 142.477 225.843C158.477 231.7 144.591 253.738 132.068 242.158ZM171.472 240.498C165.043 228.83 180.662 218.339 188.61 229.57C194.707 239.741 178.247 251.483 171.472 240.498ZM150.501 207.307C144.938 197.581 154.66 186.775 164.874 192.483C179.409 202.525 160.804 221.839 150.501 207.307Z" fill="black"/>
<path fill-rule="evenodd" clip-rule="evenodd" d="M134.393 38.8715C134.565 38.861 134.739 38.8694 134.913 38.8864C135.104 38.8947 135.294 38.9134 135.485 38.9513C136.455 39.1374 137.32 39.6503 137.99 40.3726C138.009 40.3915 138.024 40.4126 138.041 40.4312C138.355 40.6678 138.646 40.936 138.908 41.2205C138.954 41.1765 138.998 41.1328 139.046 41.0888C139.185 40.9672 139.329 40.852 139.48 40.7434C140.111 40.2025 140.852 39.8093 141.648 39.5856L141.757 39.5561C141.778 39.5498 141.799 39.5456 141.82 39.5415C142.386 39.3532 142.981 39.2569 143.58 39.2588C144.296 39.2358 145.015 39.3532 145.685 39.6294C146.479 39.9583 147.171 40.4773 147.751 41.1014C148.132 41.4112 148.465 41.7523 148.817 42.1272C149.544 42.9038 150.118 43.8124 150.481 44.8133C150.531 44.9536 150.575 45.0978 150.615 45.2423C151.501 45.1399 152.391 45.0666 153.282 45.0308C154.281 44.9703 155.28 44.9492 156.282 44.9829C159.041 45.0727 161.739 45.5586 164.352 46.4484C164.876 46.6031 165.385 46.7999 165.875 47.0428C166.644 47.3484 167.371 47.7379 168.056 48.2089L168.639 48.5548C168.932 48.7289 169.226 48.9052 169.51 49.0861C170.186 49.5197 170.827 50.0052 171.435 50.5286C172.076 51.0459 172.681 51.6091 173.258 52.1993C173.414 52.359 173.565 52.5209 173.714 52.6838C175.042 53.4 176.222 54.317 177.322 55.4107C178.195 54.909 179.098 54.4543 180.031 54.05C180.992 53.6334 182.214 53.2042 183.221 52.9218C184.126 52.6685 185.021 52.4947 185.928 52.3668C186.341 52.2956 186.756 52.2391 187.173 52.1909L187.156 52.1974V52.1974C187.449 52.1658 187.74 52.1386 188.036 52.1135L188.027 52.1114V52.1114C188.153 52.1011 188.281 52.0904 188.407 52.0821L188.712 52.0571V52.0571C188.805 52.0488 188.939 52.2642 188.947 52.3396L188.958 52.417V52.417C189.027 52.4947 189.09 52.5805 189.134 52.6329C189.188 52.6285 189.242 52.6245 189.297 52.6222C189.46 52.6078 189.649 52.8986 189.745 53.0095L189.832 53.1118C189.932 53.2311 190.031 53.3685 190.047 53.5183C190.154 54.3873 190.254 55.258 190.347 56.129C190.382 56.7884 190.347 57.4416 190.238 58.0886C190.156 58.7166 190.072 59.3447 189.988 59.9707C189.854 60.4106 189.722 60.8502 189.59 61.2897C189.538 61.4574 189.479 61.6225 189.423 61.7879C189.088 62.8925 188.695 63.9678 188.227 65.0098C188.568 65.387 188.886 65.7781 189.183 66.182C189.253 66.2546 189.325 66.3268 189.391 66.4022C189.41 66.3731 189.437 66.3459 189.467 66.331C189.567 66.2871 189.64 66.3394 189.703 66.4254C190.363 67.0554 190.843 67.7905 191.141 68.6298L191.326 69.0675C191.357 69.1407 191.387 69.214 191.417 69.2872C191.654 69.9238 191.836 70.577 191.987 71.2384C192.122 71.7589 192.219 72.2864 192.281 72.8197C192.734 74.3382 193.091 75.8916 193.429 77.4241C193.482 77.6653 193.457 77.8805 193.38 78.0639L193.577 78.2561V78.2561L193.914 78.5917C194.481 79.1561 195.058 79.7494 195.479 80.4209C195.915 81.118 196.236 81.8634 196.592 82.6026L196.668 82.7596V82.7596L196.825 83.0745C196.995 83.4183 197.076 83.6083 197.226 84.0239C197.476 84.7171 197.61 85.4141 197.673 86.1491C197.765 87.2188 197.752 88.3849 197.283 89.3793C197.281 89.3877 197.277 89.3942 197.273 89.4003C197.059 90.3614 196.531 91.2531 195.729 91.8226C195.557 91.984 195.372 92.1284 195.175 92.2434C194.703 92.5207 194.269 92.5455 193.753 92.4172L193.688 92.4004C193.623 92.3836 193.564 92.369 193.508 92.3564C193.592 92.4255 193.634 92.5074 193.508 92.5658C193.386 92.6244 193.277 92.6579 193.175 92.6705C193.219 92.727 193.223 92.7877 193.131 92.8379C192.93 92.9447 192.766 92.9784 192.599 92.9489L192.634 93.24C192.909 95.4424 193.155 95.878 193.37 98.2438C193.512 100.666 193.738 103.082 194.05 105.488L194.158 106.362C194.503 109.132 194.89 111.923 195.483 114.649C195.783 115.84 196.041 117.04 196.259 118.248C196.567 119.167 196.782 120.107 196.902 121.066C197.076 122.041 197.195 123.025 197.264 124.018C197.505 124.652 197.622 125.297 197.616 125.954C197.648 126.838 197.618 127.719 197.524 128.597C197.472 129.509 197.346 130.414 197.147 131.31C196.969 132.539 196.644 133.726 196.179 134.877C195.806 136.163 195.349 137.423 194.83 138.656C194.023 140.565 193.049 142.339 191.941 144.087C190.902 145.726 189.787 147.305 188.513 148.773C186.867 150.669 184.99 152.407 182.932 153.872C181.759 154.739 180.521 155.518 179.226 156.184C177.642 157 176.033 157.735 174.318 158.231C173.247 158.541 172.158 158.755 171.056 158.918C168.892 159.238 166.65 159.19 164.473 158.815C163.07 158.627 161.689 158.3 160.384 157.833C159.311 157.448 158.289 157.006 157.267 156.508C156.741 156.255 156.234 155.962 155.748 155.633C154.931 155.103 154.166 154.505 153.454 153.843C153.221 153.644 152.995 153.441 152.773 153.228C152.666 153.133 152.725 152.993 152.848 152.96L152.886 152.955V152.955C152.838 152.911 152.787 152.867 152.739 152.821C152.729 152.813 152.72 152.803 152.712 152.792C152.689 152.771 152.664 152.75 152.643 152.729C152.561 152.658 152.643 152.499 152.714 152.461C152.741 152.447 152.777 152.445 152.817 152.449C152.808 152.44 152.802 152.434 152.794 152.428C152.785 152.421 152.783 152.405 152.785 152.388L152.754 152.363V152.363C152.647 152.269 152.702 152.131 152.827 152.095C152.889 152.076 152.99 152.086 153.095 152.109L153.135 152.118L153.064 152.051C152.938 151.942 152.978 151.821 153.133 151.783C153.249 151.79 153.363 151.806 153.476 151.833L153.56 151.856C153.602 151.867 153.642 151.879 153.684 151.892C153.613 151.827 153.542 151.764 153.472 151.699C153.403 151.639 153.477 151.465 153.54 151.429C153.625 151.381 153.793 151.448 153.871 151.504C154.061 151.526 154.313 151.609 154.405 151.689C154.658 151.932 154.92 152.164 155.186 152.39C155.348 152.44 155.5 152.507 155.618 152.608C155.919 152.897 156.234 153.169 156.554 153.433L156.798 153.6C156.839 153.628 156.88 153.655 156.921 153.682C157.382 153.952 157.843 154.22 158.301 154.49C159.984 155.059 161.666 155.629 163.346 156.196L163.568 156.263V156.263L165.2 156.464V156.464C166.273 156.577 167.348 156.571 168.42 156.447C169.225 156.458 170.023 156.378 170.809 156.215C172.143 155.989 173.452 155.656 174.726 155.191C176.193 154.657 177.59 153.954 178.954 153.196C179.444 152.922 179.926 152.631 180.399 152.323C180.552 152.214 180.705 152.103 180.858 151.99C181.866 151.234 182.83 150.428 183.758 149.576C184.194 149.176 184.613 148.76 185.017 148.329C185.075 148.266 185.132 148.205 185.189 148.142C185.576 147.719 185.951 147.282 186.309 146.83L186.651 146.444V146.444C188.029 144.73 189.255 142.885 190.357 140.986C191.451 139.104 192.351 137.124 193.068 135.074C193.298 134.343 193.499 133.602 193.667 132.853C193.977 131.952 194.18 131.029 194.275 130.087C194.306 129.903 194.331 129.719 194.356 129.534L194.371 129.244C194.373 129.195 194.374 129.147 194.375 129.099C194.417 128.806 194.453 128.513 194.48 128.22C194.497 127.925 194.507 127.629 194.509 127.334L194.486 125.523V125.523C194.48 125.467 194.474 125.408 194.469 125.349L194.423 124.95C194.323 124.125 194.245 123.298 194.145 122.473C194.145 122.469 194.145 122.462 194.143 122.456C194.105 122.148 194.065 121.838 194.019 121.528C193.996 121.344 193.967 121.16 193.939 120.976L193.887 120.654V120.654C193.79 120.093 193.672 119.537 193.529 118.986L193.466 118.75L193.101 116.918L192.691 115.116C192.425 113.908 192.203 112.691 192.027 111.465C191.708 109.509 191.436 107.552 191.199 105.586C191.187 105.492 191.174 105.395 191.164 105.301C190.923 103.478 190.749 101.648 190.636 99.8117C190.483 98.003 190.395 96.1898 190.372 94.3749C190.37 94.293 190.424 94.2262 190.489 94.1883L190.483 93.8394C190.475 93.5306 190.47 93.901 190.467 93.549L190.463 92.581C190.463 92.5003 190.464 92.4442 190.466 92.4402C189.347 92.5175 188.594 92.4541 187.513 92.3972L187.33 92.3878C186.339 92.342 185.354 92.2331 184.376 92.0696C184.372 92.1201 184.338 92.1554 184.281 92.1659C184.181 92.1701 184.087 92.1701 183.99 92.1724L184.026 92.3083V92.3083C184.028 92.3776 183.997 92.4213 183.93 92.4402L183.65 92.4527C183.277 92.4684 182.903 92.4758 182.532 92.4255C182.199 92.3818 181.874 92.3041 181.552 92.212C181.353 92.1785 181.149 92.1326 180.942 92.0738C180.41 91.921 179.882 91.7158 179.348 91.5527C178.803 91.4373 178.25 91.3999 177.672 91.5378C177.06 91.6823 176.543 91.944 175.902 91.7849C175.774 91.7537 175.65 91.7055 175.527 91.6551L175.412 91.6471C175.393 91.6454 175.373 91.6433 175.353 91.6404C174.684 91.5443 174.089 91.1214 173.452 90.8951C173.23 90.841 173.009 90.8547 172.794 90.9445L172.74 90.9686L172.529 91.1256C172.443 91.226 172.359 91.3273 172.276 91.4291L172.151 91.5818C171.923 91.8644 171.68 92.1178 171.385 92.302C171.029 92.6307 170.605 92.8233 170.1 92.8359C169.813 92.8442 169.529 92.7835 169.252 92.6958C168.209 93.0182 167.092 93.0831 166.051 92.7691C165.638 92.7061 165.234 92.5953 164.846 92.4213C164.664 92.3397 164.482 92.2434 164.306 92.1366C163.57 92.4467 162.875 92.8589 162.165 93.215L162.005 93.2953C161.279 93.6565 160.476 94.0088 159.655 93.9561C158.62 93.8889 157.604 93.751 156.59 93.577C156.581 93.577 156.571 93.5749 156.563 93.5728L156.423 93.5496V93.5496L155.916 93.4606V93.4606L155.507 93.3846V93.3846L155.298 93.4646C153.618 94.0995 151.779 94.5948 150.091 94.1506C149.356 94.0608 148.667 93.8136 148.044 93.3927C148.023 93.3781 148.002 93.3634 147.981 93.3467C147.883 93.2964 147.791 93.2401 147.709 93.1794L147.692 93.1657V93.1657L147.676 93.152L147.667 93.1478C146.748 92.7251 146.22 91.8247 146.312 90.8158C146.255 90.4952 146.257 90.1812 146.32 89.8464C146.021 90.2 145.715 90.5499 145.405 90.8972C144.271 92.2619 143.16 93.6539 142.131 95.103L141.896 95.4384C141.33 96.2358 140.804 97.0609 140.318 97.9107C139.826 98.7502 139.321 99.5816 138.799 100.402C138.121 101.151 137.465 101.918 136.833 102.704L136.564 103.042L135.655 104.238C135.011 105 134.477 105.833 134.056 106.737C133.71 107.38 133.392 108.036 133.105 108.708C133.013 108.91 132.925 109.116 132.839 109.321C132.543 110.123 132.294 110.939 132.099 111.783C131.943 112.393 131.83 113.012 131.764 113.64L131.743 113.849C131.718 114.096 131.699 114.343 131.689 114.59C131.749 114.626 131.8 114.662 131.837 114.697L131.99 114.752V114.752L132.114 114.788C132.307 114.848 132.64 114.972 132.56 115.124L132.156 115.895V115.895C132.198 115.939 132.217 115.985 132.189 116.035C131.919 116.552 131.647 117.069 131.374 117.586C131.366 117.605 131.351 117.62 131.337 117.63C131.569 117.737 131.796 117.854 132.011 117.982C132.432 118.233 132.742 118.524 133.03 118.863C133.331 119.044 133.616 119.24 133.884 119.466C134.215 119.814 134.504 120.195 134.749 120.607C134.976 120.997 135.16 121.403 135.303 121.828C135.365 122.052 135.395 122.284 135.393 122.521C135.139 124.309 133.092 123.084 133.053 122.927C132.772 121.847 132.449 121.164 131.724 120.36L131.705 120.348V120.348C131.286 120.163 130.872 119.981 130.438 119.839C130.373 119.852 130.306 119.86 130.239 119.87C130.314 119.977 130.277 120.082 130.124 120.101C129.464 120.231 128.798 120.266 128.127 120.21L127.109 120.065V120.065C126.687 120.227 126.283 120.435 125.903 120.682L125.777 120.766L125.754 120.783C124.771 121.572 124.013 122.621 123.493 123.764C123.447 123.866 123.403 123.969 123.36 124.073L123.298 124.229L123.294 124.238C122.615 126.903 123.221 129.83 124.461 132.248C125.138 133.33 125.844 134.392 126.581 135.432L127.298 136.368V136.368C127.721 136.766 128.136 137.174 128.54 137.593C128.603 137.656 128.67 137.718 128.737 137.779C128.951 137.919 129.168 138.043 129.391 138.148C129.476 138.177 129.564 138.204 129.652 138.227C130.08 138.432 130.528 138.541 130.999 138.554C131.622 138.595 132.226 138.522 132.81 138.337L132.927 138.298L133.013 138.267C133.331 138.064 133.627 137.81 133.907 137.513C133.97 137.448 134.087 137.448 134.222 137.484C134.295 137.408 134.368 137.329 134.437 137.243C134.486 137.191 134.561 137.189 134.62 137.228C134.819 137.205 135.357 137.511 135.217 137.672C135.194 137.71 135.164 137.743 135.139 137.779C135.233 137.827 135.328 137.882 135.412 137.938C135.851 138.06 136.501 138.499 136.449 138.631L136.442 138.641C136.34 138.834 136.208 138.995 136.045 139.123L135.99 139.165L135.866 139.251C136.04 139.36 136.187 139.485 136.113 139.573C136.08 139.638 136.044 139.701 136.002 139.758C136.358 140.197 136.713 140.641 137.064 141.085C137.416 141.847 137.852 142.559 138.372 143.218C138.805 143.934 139.327 144.577 139.937 145.15C139.987 145.201 140.039 145.249 140.09 145.297C140.539 145.629 141.009 145.939 141.498 146.238L141.709 146.365C141.82 146.432 142.007 146.515 141.919 146.677C141.908 146.698 141.896 146.715 141.881 146.727C142.189 146.928 142.507 147.118 142.836 147.294L142.867 147.314C142.992 147.393 143.16 147.537 142.983 147.654C142.832 147.755 142.432 147.483 142.243 147.357C142.208 147.357 142.166 147.347 142.124 147.334C142.187 147.368 142.249 147.404 142.312 147.439L142.407 147.491C142.48 147.535 142.84 147.774 142.589 147.874C142.465 147.885 142.352 147.853 142.247 147.782C142.124 147.721 142.002 147.657 141.883 147.589C141.925 147.654 141.925 147.719 141.82 147.761C141.784 147.763 141.749 147.761 141.713 147.757C141.96 147.914 142.214 148.061 142.476 148.199L142.518 148.225C142.629 148.297 142.805 148.433 142.677 148.551C142.532 148.68 142.134 148.404 142.032 148.341L141.726 148.159V148.159C141.703 148.169 141.678 148.174 141.65 148.176C141.743 148.232 141.828 148.293 141.923 148.347L142.051 148.417C142.212 148.506 142.439 148.652 142.356 148.797C142.274 148.942 142.03 148.823 141.872 148.73L141.702 148.624C141.695 148.62 141.687 148.615 141.68 148.611L141.673 148.636C141.672 148.64 141.67 148.645 141.667 148.649C141.589 148.785 141.391 148.696 141.255 148.617L141.146 148.551C140.96 148.439 140.776 148.328 140.593 148.216L140.32 148.048H140.316C139.371 147.481 138.497 146.916 137.674 146.187C137.182 145.751 136.723 145.291 136.287 144.799C135.412 143.813 134.76 142.684 134.131 141.533C134.121 141.514 134.136 141.466 134.161 141.413C134.092 141.271 134.025 141.127 133.958 140.978C133.312 141.158 132.592 141.211 131.928 141.167C131.571 141.143 131.219 141.081 130.87 140.986C129.753 140.831 128.676 140.323 127.746 139.713C127.687 139.676 127.635 139.634 127.58 139.596C127.197 139.381 126.833 139.129 126.487 138.842C125.812 138.286 125.169 137.666 124.585 137.019C124.161 136.517 123.761 135.995 123.386 135.455C123.005 134.921 122.619 134.388 122.234 133.853C121.163 132.179 120.478 130.25 120.212 128.28C120.082 127.554 120.015 126.819 120.03 126.086C120.041 125.557 120.099 125.021 120.202 124.487C120.141 124.428 120.08 124.37 120.02 124.309C119.986 124.367 119.953 124.409 119.932 124.388L119.451 123.908C119.111 123.565 118.882 123.312 118.49 122.757C117.866 121.872 117.401 120.898 117.055 119.873C116.806 119.14 116.64 118.306 116.575 117.501C116.554 117.366 116.534 117.23 116.517 117.092C116.383 116.001 116.506 114.957 116.672 113.881C116.682 113.81 116.718 113.766 116.766 113.742C116.778 113.657 116.793 113.57 116.807 113.482C115.419 112.014 114.42 110.245 114.502 108.108C114.528 107.435 114.666 106.771 114.93 106.152L114.962 106.082V106.082C113.804 105.904 112.885 105.091 112.194 104.083C112.133 104.034 112.074 103.986 112.017 103.937C110.783 102.884 109.927 101.392 109.341 99.8163C108.921 98.9014 108.643 97.9237 108.525 96.9096C108.517 96.8371 108.512 96.7653 108.505 96.6933C108.219 95.0898 108.146 93.4702 108.278 91.8747C107.991 90.8871 107.757 89.8822 107.596 88.8538C107.521 88.3642 107.468 87.874 107.429 87.3841L107.424 87.3571L107.418 87.269L107.4 87.0493C107.398 87.0129 107.395 86.9766 107.393 86.9403C107.039 82.4558 108.042 78.0426 109.702 73.8889C109.846 73.5153 109.996 73.1427 110.15 72.7731L110.313 72.3869V72.3869C111.978 69.703 114.479 67.5321 116.598 65.2394C117.329 64.4485 116.146 63.261 115.413 64.0551C114.005 65.5784 112.495 67.0374 111.132 68.6032C110.891 68.6208 110.65 68.6273 110.41 68.6153C109.991 68.5942 109.584 68.5274 109.191 68.4204C108.208 68.276 107.313 67.8803 106.501 67.2983C105.413 66.7918 104.485 65.8369 104.393 64.5912C104.383 64.4656 104.385 64.3421 104.393 64.2188C104.292 63.6094 104.383 62.971 104.638 62.3825C104.682 62.2213 104.739 62.0622 104.81 61.9052C105.017 61.4383 105.359 60.9905 105.776 60.6867C105.786 60.6804 105.795 60.6764 105.803 60.67C105.847 60.6241 105.889 60.5778 105.937 60.5362C106.008 60.4711 106.084 60.4106 106.163 60.354C105.88 59.889 105.625 59.4119 105.407 58.903C105.17 58.3503 105.049 57.7894 104.982 57.1967C104.954 56.9622 104.944 56.7298 104.94 56.4976C104.927 56.3907 104.919 56.2818 104.91 56.1729C104.858 55.3439 104.954 54.4836 105.265 53.7088C105.288 53.6504 105.317 53.5915 105.344 53.5308C105.403 53.355 105.468 53.1793 105.547 53.0074C105.857 52.3479 106.297 51.789 106.84 51.3305C107.133 51.0353 107.462 50.7736 107.82 50.5516C108.032 50.4197 108.273 50.3025 108.526 50.2062C108.979 49.9675 109.559 49.7498 110.031 49.7333C110.087 49.731 110.137 49.7374 110.192 49.7374C110.236 48.5355 110.391 47.227 110.867 46.1384C111.143 45.3493 111.558 44.6479 112.182 44.1432C112.544 43.7655 112.99 43.4588 113.547 43.2583L113.647 43.2241L113.684 43.2136C114.185 42.9708 114.726 42.8745 115.281 42.8768C115.928 42.843 116.588 42.9647 117.152 43.2618C117.269 43.3246 117.395 43.402 117.514 43.4858C117.604 43.3057 117.705 43.1236 117.82 42.9417C118.224 42.2945 118.712 41.7314 119.278 41.2184C119.345 41.1577 119.418 41.1033 119.49 41.0449C119.764 40.7957 120.055 40.5654 120.357 40.3561C121.008 39.9036 121.723 39.5668 122.473 39.3488C123.339 39.0291 124.252 38.8806 125.166 38.9119L125.356 38.9199V38.9199C125.397 38.9238 125.439 38.9259 125.479 38.928C126.386 38.9869 127.281 39.2088 128.136 39.5436C129.022 39.8934 129.772 40.4229 130.469 41.03C130.633 40.8041 130.819 40.5903 131.048 40.3894C131.113 40.333 131.182 40.2826 131.247 40.2302C131.297 40.18 131.349 40.1318 131.404 40.0837C131.653 39.8639 131.917 39.6734 132.206 39.5038C132.531 39.3135 132.881 39.1816 133.243 39.0999C133.612 38.9741 133.999 38.8966 134.393 38.8715ZM130.088 125.18C130.125 125.178 132.066 125.905 133.032 126.375L133.08 126.398C134.194 126.951 134.731 127.349 135.732 128.058C135.799 128.107 135.868 128.18 135.868 128.251C135.868 129.285 135.617 130.549 134.747 129.989C134.622 129.908 134.495 129.829 134.368 129.751L134.175 129.635L134.169 129.637C134.171 129.637 134.173 129.635 134.175 129.633C132.282 128.479 130.281 127.575 128.169 126.928C128.025 126.876 129.095 125.259 129.39 125.349C129.221 125.282 130.06 125.181 130.088 125.18ZM149.987 79.5217C148.728 79.6563 147.468 79.7888 146.209 79.9184C145.407 80.0105 144.602 80.0922 143.798 80.1613C142.589 80.2515 141.38 80.2659 140.176 80.1005C139.748 80.0421 139.329 79.9582 138.914 79.8556C138.632 80.0629 138.338 80.2576 138.039 80.4441L134.712 82.9876V82.9876C132.481 84.7401 130.298 86.597 128.333 88.6466C124.9 92.2274 122.105 96.4167 120.348 101.057C120.188 101.151 120.065 101.315 120.024 101.567C119.713 103.469 118.806 105.203 118.477 107.098C118.154 108.963 118.584 110.549 119.757 112.028C120.007 112.344 120.52 112.328 120.835 112.114C120.908 112.258 121.225 112.252 121.336 111.617C121.857 111.053 122.303 110.462 122.605 109.729C122.828 109.19 122.454 108.816 122 108.743C122.189 108.064 122.401 107.392 122.64 106.727C123.349 104.75 124.249 102.862 125.383 101.091C126.38 99.5332 127.534 98.1766 128.775 96.8158C128.789 96.7969 128.814 96.7908 128.842 96.7867L129.099 96.5017V96.5017C129.135 96.4619 129.208 96.4661 129.29 96.4871C129.367 96.4054 129.443 96.3217 129.522 96.24C129.6 96.1563 129.686 96.1814 129.734 96.2484C129.866 96.2191 130.107 96.3614 130.18 96.4077C130.306 96.4913 130.346 96.5855 130.239 96.7048C130.22 96.7259 130.201 96.7469 130.182 96.7655C130.327 96.8264 130.469 96.9079 130.58 96.9876C130.968 97.0733 131.513 97.4334 131.418 97.5403C131.219 97.7474 131.027 97.9591 130.836 98.1745C131.004 98.2919 131.113 98.4069 131.069 98.4573C130.252 99.3176 129.497 100.229 128.806 101.193C128.28 101.914 127.805 102.663 127.379 103.444C126.747 104.549 126.21 105.686 125.735 106.855C125.668 107.033 125.603 107.21 125.54 107.388C124.844 109.333 124.325 111.352 124.105 113.407L124.096 113.546C124.055 114.287 124.039 116.27 123.962 116.743C124.425 116.971 124.907 117.165 125.408 117.325C125.502 117.352 125.599 117.377 125.695 117.4C125.749 117.377 125.806 117.358 125.863 117.341C126.323 117.155 126.805 117.021 127.298 116.956C127.629 116.912 127.96 116.897 128.29 116.907L128.431 116.912C128.578 116.916 128.722 116.927 128.869 116.942C128.86 116.858 128.856 116.776 128.85 116.692C128.808 116.665 128.777 116.628 128.775 116.577C128.676 115.635 128.674 114.693 128.768 113.751C128.831 113.259 128.904 112.769 128.984 112.279C129.066 111.877 129.16 111.482 129.263 111.086C129.535 109.976 129.897 108.894 130.337 107.835C131.59 104.813 133.386 102.09 135.192 99.3804C136.509 97.4022 137.756 95.3796 139.12 93.4346C140.28 91.7786 141.5 90.1477 142.801 88.5984C144.099 87.0515 145.472 85.5627 146.953 84.1853C147.192 83.9653 147.433 83.7518 147.678 83.5405C149.081 82.2844 150.607 81.252 152.195 80.2389C152.255 80.1992 152.364 80.2431 152.454 80.3183L152.711 80.1609C152.753 80.1347 152.796 80.1089 152.84 80.0838C152.88 80.0589 152.924 80.1005 152.947 80.1361C153.056 80.0796 153.164 80.0254 153.273 79.9707C153.353 79.9067 153.435 79.846 153.515 79.7827C152.337 79.7235 151.161 79.6356 149.987 79.5217ZM164.756 65.5648C163.805 65.3745 162.85 65.347 161.89 65.4894C161.488 65.5482 161.088 65.619 160.691 65.7046C161.592 66.4897 162.317 67.4944 162.787 68.6507C163.296 69.9006 161.268 70.4393 160.767 69.2074C160.284 68.0191 159.369 67.1075 158.264 66.5611C158.025 66.6945 157.793 66.8389 157.572 66.9989C157.283 67.2333 157.011 67.4867 156.755 67.7651C156.198 68.3704 155.687 69.1783 155.352 69.978C155.222 70.4135 155.125 70.8615 155.065 71.3221C155.052 71.4268 155.04 71.5336 155.029 71.6404C154.823 73.807 155.442 75.915 156.509 77.7804L156.551 77.7811V77.7811C157.503 77.2652 158.499 76.8306 159.525 76.4765C160.346 75.924 161.199 75.413 162.077 74.9503C163.943 73.9665 165.914 73.208 167.945 72.6894L168.179 72.6306C168.658 72.5085 169.14 72.4009 169.625 72.3068L169.916 72.2519H169.92L169.889 71.9397V71.9397C169.725 70.715 169.246 69.5782 168.626 68.5274C168.161 67.7339 167.459 66.9216 166.679 66.2726L166.675 66.2703C166.321 66.0693 165.949 65.9031 165.566 65.7657L165.422 65.7155L164.756 65.5648ZM139.218 63.7038C137.24 63.5172 135.263 63.5361 133.285 63.6973C131.992 63.8252 130.708 64.0029 129.43 64.229C128.565 64.3777 127.717 64.5871 126.883 64.8469L127.36 65.8107C128.157 67.4158 128.973 69.0105 129.935 70.5266C130.432 71.3075 130.97 72.0509 131.557 72.7646C131.953 73.2754 132.388 73.7488 132.866 74.1841C132.992 74.3371 133.126 74.4816 133.262 74.6216C133.698 74.9943 134.167 75.3209 134.68 75.591C135.092 75.8906 135.522 76.1523 135.97 76.3817L136.138 76.4663L137.71 77.069C137.794 77.0928 137.878 77.1165 137.963 77.139L138.091 77.1718L138.33 77.2219L138.509 77.1246C138.539 77.1086 138.569 77.0928 138.6 77.0774C138.65 77.0504 138.686 77.1027 138.696 77.1402C138.701 77.1551 138.694 77.1758 138.684 77.1967L138.913 77.073V77.073C139.307 77.2327 139.724 77.3605 140.172 77.4446C140.375 77.4825 140.578 77.5116 140.782 77.5365L140.809 77.5547C140.814 77.5579 140.818 77.5614 140.823 77.5654H141.045V77.5654C142.612 77.7164 144.2 77.5168 145.764 77.2361C147.976 77.0138 150.189 76.7686 152.4 76.5394C152.442 76.5354 152.459 76.554 152.459 76.5835L152.595 76.571V76.571C152.792 76.5498 153.022 76.8785 152.873 76.9981C152.993 77.069 153.108 77.1718 153.194 77.2514L153.244 77.247C152.94 76.6524 152.706 76.0306 152.538 75.3839L152.324 74.2992V74.2992C152.266 73.8951 152.232 73.4641 152.226 73.0389C152.211 72.8442 152.201 72.6622 152.201 72.5029C152.201 72.3522 152.203 72.2014 152.209 72.0509C151.792 71.879 151.369 71.7285 150.938 71.6006C149.712 71.45 148.488 71.2991 147.263 71.1505C146.528 71.1777 145.792 71.23 145.059 71.3117C144.227 71.3849 143.398 71.4791 142.57 71.5922C142.493 71.6006 142.354 71.4959 142.271 71.3745L141.916 71.4228V71.4228C141.732 71.4459 141.539 71.0772 141.782 71.0018C141.87 70.9669 141.958 70.9339 142.046 70.9021L142.178 70.8553L142.103 70.8636C142.078 70.8659 142.046 70.8594 142.011 70.8471C141.816 70.872 141.621 70.8971 141.428 70.9202C141.184 70.9506 141.239 70.6286 141.411 70.5528L141.493 70.5224C141.348 70.4321 141.221 70.1852 141.4 70.1045L141.424 70.0953C141.508 70.062 141.59 70.0346 141.673 70.0032C141.667 69.9762 141.667 69.9508 141.676 69.928L141.33 69.9718V69.9718C141.298 69.9759 141.449 69.7555 141.521 69.7119L141.533 69.7059L141.699 69.6556C141.724 69.5844 141.858 69.4274 141.904 69.413C142.511 69.2223 143.077 69.0508 143.668 68.9187C143.697 68.8831 143.731 68.8559 143.768 68.8475C144.137 68.7596 144.51 68.6905 144.883 68.6321C144.908 68.5942 144.933 68.5672 144.963 68.5649C145.887 68.4476 146.812 68.4204 147.743 68.4834C147.921 68.5 148.099 68.519 148.277 68.5418C148.618 68.5797 148.96 68.6279 149.299 68.6928C150.149 68.8386 150.98 69.0602 151.788 69.3592L151.975 69.4295C152.178 69.5051 152.379 69.5844 152.578 69.6705C152.678 69.3125 152.804 68.9606 152.953 68.6153C152.976 68.5481 153.001 68.4834 153.028 68.4185L152.825 68.2969V68.2969C152.781 68.3806 152.691 68.4455 152.632 68.4102C151.176 67.4283 149.637 66.6095 148.013 65.9563C147.104 65.5543 146.174 65.2132 145.22 64.9283C144.745 64.7757 144.265 64.6375 143.783 64.5056C143.542 64.4552 143.301 64.4049 143.056 64.363C141.797 64.0239 140.517 63.8043 139.218 63.7038ZM187.196 67.0269C187.019 67.3322 186.836 67.6345 186.64 67.9326C185.693 69.3812 184.558 70.7405 183.27 71.9257C183.606 71.9249 183.941 71.9376 184.272 71.9686C184.842 72.0224 185.401 72.1171 185.946 72.2496C185.99 72.2142 186.039 72.1964 186.079 72.2245L186.221 72.3227V72.3227C187.389 72.6377 188.486 73.1331 189.48 73.7967L189.462 73.6657C189.459 73.6438 189.456 73.622 189.452 73.6002C189.469 73.3427 189.473 73.0849 189.465 72.8295C189.259 71.32 188.746 69.9299 188.159 68.5232C188.148 68.496 188.156 68.4606 188.173 68.4246C187.877 67.9414 187.553 67.4741 187.196 67.0269ZM187.466 55.1596C187.028 55.2392 186.594 55.3418 186.163 55.4695C185.352 55.5911 184.566 55.8047 183.808 56.108C182.763 56.4786 181.749 56.9099 180.739 57.3665C178.778 58.2539 176.939 59.3763 175.265 60.7288C175.158 60.8102 175.055 60.8942 174.952 60.9779C174.577 61.3022 174.213 61.6414 173.867 61.9994C173.505 62.393 173.14 62.7868 172.778 63.1823C172.334 63.6472 171.823 64.0678 171.42 64.5703C171.339 64.6729 171.267 64.7859 171.202 64.8992L171.439 64.9806V64.9806C171.638 65.0476 171.605 65.4203 171.408 65.3659C171.341 65.347 171.278 65.324 171.215 65.2991C171.242 65.3347 171.261 65.3703 171.265 65.4015C171.278 65.502 171.2 65.6403 171.077 65.6047C171.02 65.5899 170.964 65.5689 170.907 65.5459C170.89 65.6108 170.878 65.6757 170.878 65.7385C170.888 65.7427 170.899 65.7469 170.911 65.7492C171.049 65.7974 171.309 66.0128 171.347 66.1595C171.376 66.2726 171.28 66.3938 171.156 66.3603C171.064 66.3352 170.974 66.2975 170.886 66.2556C170.945 66.3124 170.991 66.3731 170.995 66.4254C171.003 66.5217 170.92 66.6576 170.804 66.6264C170.591 66.5676 170.419 66.4778 170.276 66.3647C170.239 66.4148 170.184 66.4545 170.14 66.4422L170.059 66.4171V66.4171C170.081 66.4379 170.101 66.4598 170.121 66.4813L170.151 66.5132C170.729 67.137 171.234 67.8279 171.638 68.5714C171.657 68.5502 171.68 68.5314 171.709 68.5083C171.898 68.3492 172.093 68.1943 172.288 68.0438L172.347 67.9923V67.9923L172.407 67.941L171.969 68.0854L171.979 68.0741C172.01 68.0345 172.106 67.9025 172.151 67.8585L172.162 67.8489C172.763 67.311 173.419 66.8544 174.127 66.482C174.586 66.1845 175.068 65.9332 175.573 65.726C176.777 65.167 178.005 64.7422 179.266 64.3486C179.455 64.2879 179.643 64.223 179.832 64.1641C179.886 64.1453 179.897 64.1683 179.888 64.206L179.987 64.1767V64.1767C180.163 64.1202 180.462 64.43 180.343 64.5745C180.415 64.6331 180.486 64.6984 180.548 64.7597L180.592 64.8048L180.642 64.7901C180.792 64.744 181.045 64.9772 181.205 65.1423L181.323 65.2675C181.413 65.3638 181.589 65.5627 181.374 65.6403L181.103 65.7322V65.7322C181.112 65.7867 181.089 65.8327 181.005 65.8641C180.911 65.8955 180.818 65.929 180.726 65.9628C180.782 66.0115 180.837 66.0621 180.891 66.1134L180.971 66.1907C181.066 66.2875 181.291 66.5008 181.093 66.5949L181.068 66.6053L180.81 66.6974C180.844 66.7728 180.835 66.8442 180.722 66.8858C179.218 67.3966 177.749 67.9956 176.314 68.676C175.239 69.2704 174.104 69.7145 172.908 70.0053C172.809 70.0369 172.596 69.8882 172.508 69.7396L172.329 69.7921C172.299 69.8008 172.269 69.8092 172.239 69.8168L172.21 69.8233V69.8233C172.434 70.42 172.6 71.0667 172.692 71.6927C172.702 71.7492 172.711 71.8081 172.717 71.8646C172.952 71.8455 173.184 71.8288 173.419 71.8164C175.043 71.7304 176.685 71.7827 178.313 71.9753C178.971 71.5838 179.603 71.1546 180.209 70.6901C180.393 70.5475 180.575 70.4009 180.756 70.2523C181.837 69.3144 182.815 68.2615 183.682 67.1245C184.485 66.0714 185.182 64.9409 185.769 63.7561C186.288 62.6442 186.718 61.4885 187.043 60.2952C187.34 59.2044 187.443 58.143 187.518 57.0145C187.543 56.8303 187.56 56.6463 187.575 56.4618L187.573 56.3829V56.3829L187.571 56.3446C187.55 55.9491 187.51 55.5532 187.466 55.1596ZM172.116 69.1804C172.068 69.1971 172.017 69.2139 171.967 69.2285C171.996 69.2934 172.024 69.3565 172.051 69.4212L172.054 69.4199V69.4199L172.252 69.2641V69.2641C172.21 69.2453 172.162 69.2162 172.116 69.1804ZM187.173 52.191C187.55 52.0507 187.835 52.0235 188.027 52.1114C187.742 52.1324 187.457 52.1596 187.173 52.191Z" fill="black"/>
<path fill-rule="evenodd" clip-rule="evenodd" d="M180.826 141.797C179.487 141.808 177.982 141.306 176.975 140.913L176.713 140.809C175.842 140.46 174.947 140.06 174.279 139.388C174.066 139.17 173.839 138.922 173.723 138.663C173.656 138.51 173.628 138.353 173.693 138.196C173.934 138.173 174.163 138.142 174.38 138.102C174.483 138.083 174.582 138.064 174.657 138.063C174.937 138.062 175.213 138.097 175.489 138.132C175.529 138.137 175.569 138.142 175.609 138.147C175.824 138.174 176.037 138.202 176.251 138.231C176.872 138.314 177.489 138.397 178.119 138.427C178.574 138.449 179.051 138.423 179.532 138.397C180.779 138.329 182.069 138.237 183.031 139.11C183.282 139.339 183.388 139.627 183.388 139.92C183.388 140.277 183.237 140.64 183.008 140.925C182.489 141.57 181.691 141.79 180.826 141.797ZM188.128 130.55C187.545 131.424 186.575 131.985 185.245 131.924C182.602 131.803 179.447 130.807 177.234 129.366C176.657 128.991 176.283 128.391 176.216 127.748L176.097 126.605L175.452 127.557C175.385 127.656 175.318 127.755 175.25 127.854C175.063 128.127 174.877 128.399 174.701 128.678C174.025 129.751 173.406 130.834 172.844 131.97C172.446 132.774 172.155 133.674 171.863 134.581C171.371 136.114 170.895 137.621 169.842 138.698C169.683 138.861 169.438 138.919 169.214 138.89C169.017 138.865 168.824 138.768 168.729 138.575C167.471 136.02 169.163 132.94 170.535 130.799L170.68 130.575C171.952 128.64 174.03 126.079 176.41 125.731L176.683 126.166L177.079 125.902C177.727 125.47 178.582 125.49 179.331 125.828L180.08 126.165C181.473 126.79 182.848 127.367 184.356 127.683C184.466 127.706 184.576 127.728 184.686 127.748C184.789 127.766 184.893 127.784 184.998 127.8C184.975 127.698 184.951 127.595 184.927 127.493C184.902 127.385 184.876 127.277 184.848 127.17C184.82 127.058 184.789 126.948 184.759 126.837C184.638 126.398 184.502 125.962 184.34 125.535C183.731 123.932 182.759 122.432 181.813 121.002L181.702 120.834C181.566 120.629 181.417 120.415 181.264 120.194C180.526 119.132 179.708 117.98 179.65 116.824C180.629 116.885 181.449 117.493 182.17 118.022C183.16 118.748 184.077 119.578 184.909 120.48C186.523 122.23 187.972 124.466 188.607 126.778C188.971 128.102 188.811 129.527 188.128 130.55V130.55ZM162.304 117.361L162.304 117.313C162.307 115.978 163.085 112.93 165.008 112.93C166.21 112.93 166.939 115.005 167.065 117.143L167.07 117.23C167.125 118.56 166.76 121.466 165.008 121.466C163.237 121.466 162.322 118.714 162.304 117.361V117.361ZM190.619 116.942L190.619 116.895C190.616 115.56 189.838 112.511 187.915 112.511C186.744 112.511 186.021 114.484 185.868 116.564L185.858 116.724C185.782 118.009 186.123 121.047 187.915 121.047C189.686 121.047 190.601 118.295 190.619 116.942V116.942ZM168.781 108.326C168.526 108.355 168.273 108.394 168.019 108.435C167.28 108.552 166.544 108.694 165.814 108.858C164.426 109.172 163.05 109.567 161.7 110.013C160.437 110.431 159.193 110.904 157.95 111.376C157.883 111.402 157.817 111.427 157.751 111.452C157.312 111.619 156.874 111.806 156.435 111.993C155.767 112.279 155.096 112.566 154.412 112.782C156.216 110.29 158.995 108.443 161.67 107.121C163.196 106.367 164.815 105.759 166.444 105.261L167.351 104.988C168.686 104.595 170.146 104.231 171.401 105.016C171.897 105.327 172.214 105.809 172.313 106.331C172.411 106.843 172.3 107.392 171.946 107.849C171.638 108.248 171.254 108.476 170.845 108.553C170.394 108.639 169.916 108.545 169.481 108.313C169.133 108.287 169.03 108.296 168.927 108.308L168.781 108.326ZM188.872 108.579C187.978 108.385 187.093 108.307 186.176 108.335C185.761 108.347 185.36 108.411 184.96 108.476C184.338 108.576 183.719 108.679 183.05 108.558C182.7 108.494 182.403 108.29 182.173 108.024C181.905 107.712 181.727 107.314 181.67 106.935C181.611 106.544 181.669 106.202 181.814 105.9C181.985 105.543 182.274 105.243 182.622 104.979C183.676 104.182 185.484 104.373 186.728 104.535C187.957 104.694 189.18 105.075 190.266 105.68C191.338 106.277 192.27 107.082 192.998 108.065C193.611 108.894 193.899 109.848 194.197 110.819C192.795 109.643 190.648 108.965 188.872 108.579Z" fill="black"/>
</svg>
