<svg width="44" height="40" viewBox="0 0 44 40" fill="none" xmlns="http://www.w3.org/2000/svg">
<path d="M38.9117 25.2482C38.4836 29.116 36.5331 32.6992 33.4364 35.3066C30.3397 37.914 26.3163 39.361 22.142 39.3683C17.9678 39.3757 13.9384 37.943 10.8312 35.3465C7.72393 32.75 5.75889 29.1738 5.31506 25.3074L8.04293 25.0357C8.41467 28.2741 10.0605 31.2695 12.6631 33.4442C15.2657 35.619 18.6405 36.819 22.1368 36.8128C25.6331 36.8066 29.003 35.5947 31.5967 33.4108C34.1904 31.2269 35.8241 28.2257 36.1827 24.9861L38.9117 25.2482Z" fill="white"/>
<path fill-rule="evenodd" clip-rule="evenodd" d="M10.5411 20.8579C16.036 20.8579 20.4904 16.4034 20.4904 10.9085C20.4904 5.41369 16.036 0.959229 10.5411 0.959229C5.04626 0.959229 0.591797 5.41369 0.591797 10.9085C0.591797 16.4034 5.04626 20.8579 10.5411 20.8579ZM14.5998 11.9952C16.346 12.7413 17.4825 13.2269 17.4825 10.9086C17.4825 7.07496 14.3748 3.96719 10.5411 3.96719C6.70751 3.96719 3.59975 7.07496 3.59975 10.9086C3.59975 13.2269 4.73623 12.7413 6.48246 11.9952C7.62387 11.5076 9.0258 10.9086 10.5411 10.9086C12.0565 10.9086 13.4584 11.5076 14.5998 11.9952Z" fill="white"/>
<path fill-rule="evenodd" clip-rule="evenodd" d="M33.0915 20.8579C38.5864 20.8579 43.0409 16.4034 43.0409 10.9085C43.0409 5.41369 38.5864 0.959229 33.0915 0.959229C27.5967 0.959229 23.1422 5.41369 23.1422 10.9085C23.1422 16.4034 27.5967 20.8579 33.0915 20.8579ZM37.1501 11.9952C38.8964 12.7413 40.0328 13.2269 40.0328 10.9086C40.0328 7.07496 36.9251 3.96719 33.0915 3.96719C29.2578 3.96719 26.1501 7.07496 26.1501 10.9086C26.1501 13.2269 27.2866 12.7413 29.0328 11.9952C30.1742 11.5076 31.5761 10.9086 33.0915 10.9086C34.6068 10.9086 36.0087 11.5076 37.1501 11.9952Z" fill="white"/>
</svg>
