<svg width="169" height="91" viewBox="0 0 169 91" fill="none" xmlns="http://www.w3.org/2000/svg">
<path d="M148.854 63.7246C148.048 70.9484 144.377 77.6405 138.549 82.5102C132.72 87.3799 125.147 90.0822 117.291 90.096C109.434 90.1097 101.85 87.4339 96.0015 82.5847C90.1531 77.7354 86.4545 71.0562 85.6191 63.8353L90.7535 63.3278C91.4532 69.3759 94.551 74.9702 99.4495 79.0319C104.348 83.0935 110.7 85.3347 117.281 85.3232C123.861 85.3117 130.204 83.0483 135.086 78.9695C139.968 74.8907 143.043 69.2856 143.718 63.2351L148.854 63.7246Z" fill="white"/>
<path d="M15.6032 55.9602C12.6803 55.9602 10.0582 55.4341 7.73711 54.3819C5.41598 53.2858 3.56767 51.8171 2.19218 49.9758C0.85968 48.1344 0.128952 46.0958 0 43.8599H9.09111C9.26305 45.2628 9.9293 46.4246 11.0899 47.3453C12.2934 48.266 13.7764 48.7263 15.5387 48.7263C17.2581 48.7263 18.5906 48.3756 19.5362 47.6741C20.5248 46.9726 21.0192 46.0739 21.0192 44.9778C21.0192 43.7941 20.4174 42.9173 19.2138 42.3473C18.0533 41.7335 16.1835 41.0759 13.6044 40.3744C10.9394 39.7168 8.74724 39.0373 7.02788 38.3358C5.3515 37.6343 3.89005 36.5602 2.64351 35.1134C1.43996 33.6667 0.838188 31.7157 0.838188 29.2606C0.838188 27.2438 1.39698 25.4025 2.51456 23.7365C3.67513 22.0705 5.30852 20.7553 7.41474 19.7908C9.56393 18.8262 12.2436 18.4668 15.1235 18.4668C19.3789 18.4668 22.6096 19.44 25.1456 21.6321C27.6817 23.7804 29.0787 26.6958 29.3366 30.3785H20.6968C20.5678 28.9318 19.9661 27.7919 18.8915 26.9589C17.8598 26.082 16.4629 25.6436 14.7005 25.6436C13.0671 25.6436 11.7991 25.9505 10.8964 26.5643C10.0368 27.1781 9.60692 28.033 9.60692 29.129C9.60692 30.3566 10.2087 31.2992 11.4122 31.9568C12.6158 32.5706 14.4856 33.2063 17.0217 33.8639C19.6007 34.5216 21.7284 35.2011 23.4048 35.9026C25.0811 36.6041 26.5211 37.7001 27.7247 39.1907C28.9712 40.6375 29.616 42.5665 29.6589 44.9778C29.6589 47.0822 29.0787 48.9674 27.9181 50.6334C26.8005 52.2994 25.1671 53.6146 23.0179 54.5792C20.9117 55.4998 18.4401 55.9602 15.6032 55.9602Z" fill="white"/>
<path fill-rule="evenodd" clip-rule="evenodd" d="M95.5364 56.1455C105.849 56.1455 114.209 47.7664 114.209 37.4303C114.209 27.0942 105.849 18.7151 95.5364 18.7151C85.2236 18.7151 76.8634 27.0942 76.8634 37.4303C76.8634 47.7664 85.2236 56.1455 95.5364 56.1455ZM103.154 39.4743C106.431 40.8777 108.564 41.7911 108.564 37.4303C108.564 30.219 102.731 24.3732 95.5364 24.3732C88.3414 24.3732 82.5087 30.219 82.5087 37.4303C82.5087 41.7911 84.6417 40.8777 87.919 39.4743C90.0612 38.557 92.6924 37.4303 95.5364 37.4303C98.3804 37.4303 101.012 38.557 103.154 39.4743Z" fill="white"/>
<path fill-rule="evenodd" clip-rule="evenodd" d="M138.151 56.1455C148.522 56.1455 156.929 47.7664 156.929 37.4303C156.929 27.0942 148.522 18.7151 138.151 18.7151C127.78 18.7151 119.373 27.0942 119.373 37.4303C119.373 47.7664 127.78 56.1455 138.151 56.1455ZM145.477 38.9992C148.754 40.3948 150.887 41.3031 150.887 36.9666C150.887 29.7956 145.054 23.9823 137.859 23.9823C130.664 23.9823 124.832 29.7956 124.832 36.9666C124.832 41.3031 126.965 40.3948 130.242 38.9992C132.384 38.087 135.015 36.9666 137.859 36.9666C140.703 36.9666 143.335 38.087 145.477 38.9992Z" fill="white"/>
<path d="M169 18.6534L168.976 55.9603H163.063V18.6534H165.647H169Z" fill="white"/>
<path fill-rule="evenodd" clip-rule="evenodd" d="M70.8981 44.3573C68.1509 51.2643 61.4171 56.1455 53.5459 56.1455C43.2331 56.1455 34.8729 47.7664 34.8729 37.4303C34.8729 27.0942 43.2331 18.7151 53.5459 18.7151C61.214 18.7151 67.8026 23.3476 70.6775 29.9726H61.0126C59.0919 28.041 56.4345 26.8456 53.4986 26.8456C47.6398 26.8456 42.8904 31.6058 42.8904 37.4777C42.8904 43.3497 47.6398 48.1099 53.4986 48.1099C56.7396 48.1099 59.6412 46.6531 61.587 44.3573H70.8981Z" fill="white"/>
</svg>
